<svg width="24" height="24" viewBox="0 0 24 24" fill="none" xmlns="http://www.w3.org/2000/svg">
<path d="M19.482 7.84056H20.7316V6.4989C20.7316 5.52289 19.9377 4.72866 18.9614 4.72866H18.4375L18.4377 3.87655C18.4377 3.3944 18.0433 3 17.561 3H17.4725C16.9904 3 16.596 3.3944 16.596 3.87655V4.72895H14.6007V3.87655C14.6007 3.3944 14.2063 3 13.7242 3H13.6357C13.1536 3 12.7592 3.3944 12.7592 3.87655V4.72895H10.7639V3.87655C10.7639 3.3944 10.3694 3 9.88707 3H9.79861C9.31647 3 8.92207 3.3944 8.92207 3.87655V4.72895H6.9268L6.92694 3.87655C6.92694 3.3944 6.53254 3 6.05025 3H5.9618C5.47965 3 5.08525 3.3944 5.08525 3.87655V4.72895H4.77024C3.79408 4.72895 3 5.52289 3 6.49918V7.84084H19.482L19.482 7.84056Z" fill="white"/>
<path d="M4.77017 21H16.7967C17.2529 21 17.6949 20.8104 18.0091 20.4794L20.2715 18.0982C20.5681 17.7858 20.7315 17.3768 20.7315 16.9461L20.7316 8.67493H3V19.2297C3 20.206 3.79422 20.9999 4.77038 20.9999L4.77017 21ZM17.5314 16.6199H19.6875C19.7803 16.6199 19.8279 16.7307 19.7644 16.7981L19.4226 17.1601L17.0886 19.6313L16.5683 20.1821C16.5028 20.2517 16.3857 20.2051 16.3857 20.1095V17.7653C16.386 17.1353 16.9015 16.62 17.5314 16.62L17.5314 16.6199ZM7.07769 14.0429L8.04324 12.8627C8.16643 12.712 8.39146 12.6972 8.5335 12.8303L10.5243 14.6967C10.6549 14.8193 10.8589 14.8176 10.9878 14.6933L15.0268 10.7933C15.1587 10.6659 15.3684 10.6677 15.498 10.7975L16.4223 11.7217C16.5548 11.8543 16.5533 12.0695 16.4191 12.2004L10.9804 17.4954C10.8546 17.6181 10.6556 17.6231 10.5238 17.507L7.11584 14.5078C6.97982 14.3884 6.96308 14.1826 7.07762 14.0427L7.07769 14.0429Z" fill="white"/>
</svg>
