<svg width="32" height="34" viewBox="0 0 32 34" fill="none" xmlns="http://www.w3.org/2000/svg">
<path d="M14.3428 1.45309C15.1358 0.279269 16.8642 0.279267 17.6572 1.45309L19.0758 3.55285C19.5892 4.31276 20.5537 4.62613 21.4157 4.31312L23.7976 3.44821C25.1291 2.96471 26.5274 3.98063 26.479 5.39641L26.3925 7.92898C26.3612 8.84554 26.9573 9.66594 27.8386 9.91939L30.274 10.6197C31.6354 11.0112 32.1695 12.655 31.2982 13.7719L29.7396 15.77C29.1755 16.4931 29.1755 17.5072 29.7396 18.2303L31.2982 20.2283C32.1695 21.3452 31.6354 22.989 30.274 23.3805L27.8386 24.0809C26.9573 24.3343 26.3612 25.1547 26.3925 26.0713L26.479 28.6038C26.5274 30.0196 25.1291 31.0355 23.7976 30.552L21.4157 29.6871C20.5537 29.3741 19.5892 29.6875 19.0758 30.4474L17.6572 32.5472C16.8642 33.721 15.1358 33.721 14.3428 32.5472L12.9242 30.4474C12.4108 29.6875 11.4463 29.3741 10.5843 29.6871L8.20242 30.552C6.87088 31.0355 5.47258 30.0196 5.52095 28.6038L5.60749 26.0713C5.6388 25.1547 5.04274 24.3343 4.16137 24.0809L1.72601 23.3805C0.364575 22.989 -0.169528 21.3453 0.701782 20.2283L2.2604 18.2303C2.82447 17.5072 2.82447 16.4931 2.2604 15.77L0.701783 13.7719C-0.169527 12.655 0.364573 11.0112 1.72601 10.6197L4.16137 9.91939C5.04274 9.66595 5.6388 8.84554 5.60749 7.92899L5.52095 5.39641C5.47258 3.98063 6.87088 2.96471 8.20241 3.44821L10.5843 4.31312C11.4463 4.62613 12.4108 4.31277 12.9242 3.55285L14.3428 1.45309Z" fill="white"/>
<path d="M22 13.9288L14.9289 20.9999L10.1078 15.9636" stroke="#0DA300" stroke-width="3" stroke-linecap="round"/>
</svg>
