<svg width="37" height="36" viewBox="0 0 37 36" fill="none" xmlns="http://www.w3.org/2000/svg">

<path fill-rule="evenodd" clip-rule="evenodd" d="M17.0508 12H6.55078C5.60797 12 5.13657 12 4.84367 12.2929C4.55078 12.5858 4.55078 13.0572 4.55078 14V17.5C4.55078 18.4428 4.55078 18.9142 4.84367 19.2071C5.13657 19.5 5.60797 19.5 6.55078 19.5H9.05078V20H17.0508V12ZM9.05078 22V29.5C9.05078 30.4428 9.05078 30.9142 9.34367 31.2071C9.63657 31.5 10.108 31.5 11.0508 31.5H17.0508V22H9.05078ZM19.0508 31.5H25.0508C25.9936 31.5 26.465 31.5 26.7579 31.2071C27.0508 30.9142 27.0508 30.4428 27.0508 29.5V22H19.0508V31.5ZM27.0508 20V19.5H29.5508C30.4936 19.5 30.965 19.5 31.2579 19.2071C31.5508 18.9142 31.5508 18.4428 31.5508 17.5V14C31.5508 13.0572 31.5508 12.5858 31.2579 12.2929C30.965 12 30.4936 12 29.5508 12H19.0508V20H27.0508Z" fill="#FFD700"/>
<path d="M28.5508 7.55848V5.77485C28.5508 4.40974 27.2134 3.4458 25.9183 3.87748L24.2643 4.42884C22.6442 4.96886 21.1721 5.87866 19.9646 7.08618L18.0508 9V10.5H23.7262C23.9412 10.5 24.1547 10.4653 24.3587 10.3974L27.1832 9.45585C27.9999 9.18362 28.5508 8.41934 28.5508 7.55848Z" fill="#FFD700"/>
<path d="M7.55078 7.55848V5.77485C7.55078 4.40974 8.88817 3.4458 10.1832 3.87748L11.8373 4.42884C13.4574 4.96886 14.9294 5.87866 16.137 7.08618L18.0508 9V10.5H12.3753C12.1604 10.5 11.9468 10.4653 11.7429 10.3974L8.91833 9.45585C8.10164 9.18362 7.55078 8.41934 7.55078 7.55848Z" fill="#FFD700"/>
</svg>
