<svg width="21" height="21" viewBox="0 0 21 21" fill="none" xmlns="http://www.w3.org/2000/svg">
<path fill-rule="evenodd" clip-rule="evenodd" d="M18.3008 10.5C18.3008 14.6421 14.9429 18 10.8008 18C6.65865 18 3.30078 14.6421 3.30078 10.5C3.30078 6.35786 6.65865 3 10.8008 3C14.9429 3 18.3008 6.35786 18.3008 10.5ZM11.6341 15.5C11.6341 15.9602 11.261 16.3333 10.8008 16.3333C10.3405 16.3333 9.96745 15.9602 9.96745 15.5C9.96745 15.0398 10.3405 14.6667 10.8008 14.6667C11.261 14.6667 11.6341 15.0398 11.6341 15.5ZM10.8008 4.5C8.86778 4.5 7.30078 6.067 7.30078 8H9.30078C9.30078 7.17157 9.97235 6.5 10.8008 6.5H10.8794C11.6644 6.5 12.3008 7.13639 12.3008 7.92141V8.34905C12.3008 8.70549 12.0727 9.02193 11.7346 9.13465C10.5797 9.51959 9.80078 10.6003 9.80078 11.8176V13.8333H11.8008V11.8176C11.8008 11.4612 12.0289 11.1447 12.367 11.032C13.5218 10.6471 14.3008 9.56635 14.3008 8.34905V7.92141C14.3008 6.03182 12.769 4.5 10.8794 4.5H10.8008Z" fill="#212529"/>
</svg>
