<svg width="18" height="18" viewBox="0 0 18 18" fill="none" xmlns="http://www.w3.org/2000/svg">
<path d="M8.99998 17.9989C10.78 17.9989 12.52 17.4713 14.0001 16.4824C15.4801 15.4935 16.6337 14.0879 17.3149 12.4434C17.9962 10.7989 18.1743 8.98939 17.827 7.24379C17.4798 5.49798 16.6227 3.89438 15.3638 2.63598C13.6761 0.948104 11.387 0 8.9999 0C6.61281 0 4.32381 0.948104 2.63598 2.63598C0.948104 4.32369 0 6.61281 0 8.9999C0 11.387 0.948104 13.676 2.63598 15.3638C3.46967 16.2021 4.46149 16.8667 5.55382 17.319C6.6463 17.7714 7.81752 18.0028 8.99982 17.9995L8.99998 17.9989ZM8.99998 2.26024C10.6555 2.26055 12.2531 2.87061 13.4878 3.97368C14.7223 5.07691 15.5074 6.59609 15.6933 8.24134C15.879 9.88648 15.4527 11.5425 14.4953 12.8932L5.1043 3.50264C6.24159 2.69278 7.60394 2.25931 9.00006 2.26278L8.99998 2.26024ZM3.50502 5.1039L12.896 14.4949C11.5983 15.4128 10.0179 15.8423 8.434 15.7076C6.85027 15.5728 5.36516 14.8824 4.24108 13.7586C3.117 12.6347 2.4268 11.1496 2.29203 9.56563C2.15726 7.98191 2.58681 6.40149 3.50478 5.10366L3.50502 5.1039Z" fill="#FA5252"/>
</svg>
