<svg width="32" height="32" viewBox="0 0 32 32" fill="none" xmlns="http://www.w3.org/2000/svg">
<path fill-rule="evenodd" clip-rule="evenodd" d="M16.0002 24L18.6469 5.772C18.6839 5.55283 18.6684 5.32799 18.6015 5.116C18.5327 4.89943 18.4155 4.70133 18.2589 4.53667C18.0962 4.36574 17.8996 4.23084 17.6815 4.14067C17.4576 4.04756 17.2174 3.99975 16.9749 4H5.69354C5.44954 4 5.20821 4.048 4.98687 4.14C4.76856 4.2303 4.57165 4.36544 4.40887 4.53667C4.25224 4.70133 4.13507 4.89943 4.06621 5.116C3.99954 5.32933 3.98354 5.55333 4.02021 5.772L6.66687 24V25.6667C6.66687 26.2767 6.89954 26.8673 7.32154 27.3067C7.52955 27.525 7.7796 27.699 8.05664 27.8182C8.33368 27.9373 8.63197 27.9992 8.93354 28H13.7335C14.3435 28 14.9229 27.7467 15.3455 27.3067C15.767 26.8648 16.0015 26.2773 16.0002 25.6667V24ZM12.0615 10.208C12.0615 10.0312 11.9913 9.86162 11.8663 9.7366C11.7413 9.61157 11.5717 9.54133 11.3949 9.54133C11.2181 9.54133 11.0485 9.61157 10.9235 9.7366C10.7984 9.86162 10.7282 10.0312 10.7282 10.208V12.5633H8.31754C8.14073 12.5633 7.97116 12.6336 7.84614 12.7586C7.72111 12.8836 7.65087 13.0532 7.65087 13.23C7.65087 13.4068 7.72111 13.5764 7.84614 13.7014C7.97116 13.8264 8.14073 13.8967 8.31754 13.8967H10.7282V16.252C10.7282 16.4288 10.7984 16.5984 10.9235 16.7234C11.0485 16.8484 11.2181 16.9187 11.3949 16.9187C11.5717 16.9187 11.7413 16.8484 11.8663 16.7234C11.9913 16.5984 12.0615 16.4288 12.0615 16.252V13.8967H14.4715C14.6484 13.8967 14.8179 13.8264 14.9429 13.7014C15.068 13.5764 15.1382 13.4068 15.1382 13.23C15.1382 13.0532 15.068 12.8836 14.9429 12.7586C14.8179 12.6336 14.6484 12.5633 14.4715 12.5633H12.0615V10.208ZM14.3842 26.3833C14.5622 26.198 14.6669 25.9407 14.6669 25.6667V24.6667H8.00021V25.6667C8.00021 25.94 8.10487 26.198 8.28287 26.3833C8.46021 26.568 8.69487 26.6667 8.93354 26.6667H13.7335C13.9722 26.6667 14.2069 26.568 14.3842 26.3833Z" fill="#212529"/>
<path d="M28.0003 4.66667C28.0003 4.48986 27.9301 4.32029 27.8051 4.19526C27.68 4.07024 27.5105 4 27.3337 4C27.1568 4 26.9873 4.07024 26.8623 4.19526C26.7372 4.32029 26.667 4.48986 26.667 4.66667H22.667V6H26.667V7.33333H22.667V8.66667H26.667V10H22.667V11.3333H26.667V12.6613L24.1623 15.5647C24.0579 15.6857 24.0004 15.8402 24.0003 16V27.3333C24.0003 27.5101 24.0706 27.6797 24.1956 27.8047C24.3206 27.9298 24.4902 28 24.667 28C24.8438 28 25.0134 27.9298 25.1384 27.8047C25.2634 27.6797 25.3337 27.5101 25.3337 27.3333V16.248L27.8383 13.3447C27.9428 13.2237 28.0003 13.0692 28.0003 12.9093V4.66667Z" fill="#212529"/>
</svg>
