<svg width="30" height="30" viewBox="0 0 30 30" fill="none" xmlns="http://www.w3.org/2000/svg">
<path fill-rule="evenodd" clip-rule="evenodd" d="M8.47698 16.5321C9.78686 17.0029 10.7307 18.2632 10.7307 19.7333V20.9555C10.7307 21.5786 10.2221 22.0882 9.60072 22.0882H3.12999C2.50863 22.0882 2 21.5786 2 20.9555V19.7333C2 18.2631 2.94386 17.0029 4.25355 16.5321C3.83722 16.0447 3.58546 15.4116 3.58546 14.7195C3.58546 13.1802 4.83007 11.9322 6.36521 11.9322C7.90055 11.9322 9.14516 13.1802 9.14516 14.7195C9.14516 15.4116 8.8934 16.0445 8.47707 16.5321H8.47698ZM15 3C18.3136 3 20.9996 5.69346 20.9996 9.0159C20.9996 12.3385 18.3134 15.0318 15 15.0318C11.6866 15.0318 9.00042 12.3385 9.00042 9.0159C9.00042 5.69332 11.6864 3 15 3ZM15.7604 5.78751C16.1114 5.86964 16.4413 6.00904 16.7392 6.19416L17.7603 5.44268L18.5638 6.24839L17.8144 7.2726C17.9986 7.57132 18.1374 7.90172 18.2201 8.25374L19.4713 8.44644V9.58558L18.2201 9.7779C18.1378 10.1305 17.9988 10.4611 17.8144 10.7596L18.5638 11.7838L17.7603 12.5894L16.7392 11.8379C16.4413 12.0228 16.1114 12.1622 15.7604 12.2447L15.5682 13.4997H14.4322L14.24 12.2451C13.8889 12.1622 13.5591 12.0232 13.2611 11.8379L12.2397 12.5894L11.4363 11.7838L12.1854 10.7596C12.001 10.4609 11.8625 10.1305 11.7797 9.77791L10.5284 9.58559V8.44645L11.7797 8.25375C11.8627 7.90173 12.001 7.57132 12.1854 7.27222L11.4363 6.2484L12.2397 5.44269L13.2611 6.19417C13.559 6.00924 13.8889 5.86984 14.24 5.78752L14.4322 4.53215H15.5682L15.7604 5.78751ZM15 7.10606C16.0519 7.10606 16.9044 7.96086 16.9044 9.016C16.9044 10.0709 16.0519 10.9255 15 10.9255C13.9481 10.9255 13.0952 10.0709 13.0952 9.016C13.0952 7.96105 13.9481 7.10606 15 7.10606ZM25.7465 16.8466C27.0563 17.3177 28 18.5778 28 20.0482V21.2702C28 21.8938 27.4918 22.4032 26.87 22.4032H20.3998C19.778 22.4032 19.2698 21.894 19.2698 21.2702V20.0482C19.2698 18.5779 20.2132 17.3177 21.5233 16.8466C21.107 16.3593 20.8552 15.7264 20.8552 15.0343C20.8552 13.495 22.0998 12.2468 23.635 12.2468C25.1701 12.2468 26.4149 13.4952 26.4149 15.0343C26.4149 15.7264 26.1632 16.3593 25.7468 16.8466H25.7465ZM17.1117 21.4435C18.4216 21.9146 19.3653 23.1742 19.3653 24.6447V25.8669C19.3653 26.49 18.857 27 18.2353 27H11.765C11.1433 27 10.635 26.49 10.635 25.8669V24.6447C10.635 23.1742 11.5785 21.9146 12.8886 21.4435C12.4723 20.9561 12.2205 20.323 12.2205 19.6309C12.2205 18.0916 13.4651 16.8436 15.0002 16.8436C16.5356 16.8436 17.7802 18.0916 17.7802 19.6309C17.7802 20.323 17.5284 20.9559 17.1121 21.4435H17.1117Z" fill="#0057B8"/>
</svg>
