<svg width="32" height="32" viewBox="0 0 32 32" fill="none" xmlns="http://www.w3.org/2000/svg">
<path d="M18.6663 29.3333H13.333V28H18.6663V29.3333ZM17.333 13.3333V9.33333H14.6663V13.3333L13.333 15.3333V26.6667H18.6663V15.3333L17.333 13.3333ZM15.9997 2.66667C15.9997 2.66667 14.6663 4 14.6663 6.66667V8H17.333V6.66667C17.333 6.66667 17.333 4 15.9997 2.66667ZM10.6663 29.3333H5.33301V28H10.6663V29.3333ZM9.33301 13.3333V9.33333H6.66634V13.3333L5.33301 15.3333V26.6667H10.6663V15.3333L9.33301 13.3333ZM7.99967 2.66667C7.99967 2.66667 6.66634 4 6.66634 6.66667V8H9.33301V6.66667C9.33301 6.66667 9.33301 4 7.99967 2.66667ZM26.6663 29.3333H21.333V28H26.6663V29.3333ZM25.333 13.3333V9.33333H22.6663V13.3333L21.333 15.3333V26.6667H26.6663V15.3333L25.333 13.3333ZM23.9997 2.66667C23.9997 2.66667 22.6663 4 22.6663 6.66667V8H25.333V6.66667C25.333 6.66667 25.333 4 23.9997 2.66667Z" fill="#212529"/>
</svg>
