<svg width="32" height="33" viewBox="0 0 32 33" fill="none" xmlns="http://www.w3.org/2000/svg">
<path d="M14.8997 19.855L18.624 17.0615V8.93652H10.499V17.874L6.09876 21.155C4.09798 22.6561 3.36368 25.442 4.61544 27.6073C5.5422 29.2109 7.21189 30.0615 8.87803 30.0615C9.89518 30.0615 10.922 29.7441 11.799 29.0865L12.9091 28.2542C11.3932 25.442 12.2215 21.8639 14.8997 19.855ZM18.624 5.68652C18.624 5.12539 18.7799 4.60488 19.0313 4.14379C18.8982 4.10824 18.7687 4.06152 18.624 4.06152H12.124C11.2267 4.06152 10.499 4.78922 10.499 5.68652V7.31152H18.624V5.68652ZM28.374 4.06152H21.874C20.9767 4.06152 20.249 4.78922 20.249 5.68652V7.31152H29.999V5.68652C29.999 4.78922 29.2713 4.06152 28.374 4.06152ZM20.249 17.874L15.8752 21.155C13.8744 22.6561 13.1401 25.442 14.3919 27.6073C15.3186 29.2109 16.9619 30.0615 18.6281 30.0615C19.6452 30.0615 20.672 29.7441 21.549 29.0865L27.399 24.699C28.2063 24.0936 28.8615 23.3085 29.3128 22.4059C29.7641 21.5034 29.999 20.5081 29.999 19.499V8.93652H20.249V17.874Z" fill="#0057B8"/>
</svg>
