<svg width="26" height="22" viewBox="0 0 26 22" fill="none" xmlns="http://www.w3.org/2000/svg">
<path d="M22.7412 1.34667C22.4574 0.56 21.6629 0 20.7265 0H5.11962C4.18321 0 3.40287 0.56 3.10492 1.34667L0.153809 9.33333V19.3333C0.153809 20.44 1.10441 21.3333 2.28201 21.3333C3.45962 21.3333 4.41022 20.44 4.41022 19.3333V18.6667H21.4359V19.3333C21.4359 20.4267 22.3865 21.3333 23.5641 21.3333C24.7275 21.3333 25.6923 20.44 25.6923 19.3333V9.33333L22.7412 1.34667ZM6.53842 14.6667C5.36082 14.6667 4.41022 13.7733 4.41022 12.6667C4.41022 11.56 5.36082 10.6667 6.53842 10.6667C7.71603 10.6667 8.66663 11.56 8.66663 12.6667C8.66663 13.7733 7.71603 14.6667 6.53842 14.6667ZM19.3077 14.6667C18.13 14.6667 17.1795 13.7733 17.1795 12.6667C17.1795 11.56 18.13 10.6667 19.3077 10.6667C20.4853 10.6667 21.4359 11.56 21.4359 12.6667C21.4359 13.7733 20.4853 14.6667 19.3077 14.6667ZM4.14065 6.66667L5.6162 2.66667H20.2157L21.6912 6.66667H4.14065Z" fill="#FFD700"/>
</svg>
