<svg width="32" height="32" viewBox="0 0 32 32" fill="none" xmlns="http://www.w3.org/2000/svg">
<g clip-path="url(#clip0_911_8971)">
<path d="M33 10.7282V9.39484H23.6667V10.7282H27.6667V12.0615H26.3333V14.7282H21.9333L19.932 11.2615H14.14L12.14 14.7282H7.66667V12.0615H6.33333V10.7282H10.3333V9.39484H1V10.7282H5V12.0615H3.66667V18.7282H7.66667V17.3948H11.8893L12.1773 17.8935C10.4215 18.7839 8.94618 20.1427 7.91476 21.8196C6.88334 23.4965 6.33601 25.4261 6.33333 27.3948C6.33333 27.5716 6.40357 27.7412 6.5286 27.8662C6.65362 27.9913 6.82319 28.0615 7 28.0615C7.17681 28.0615 7.34638 27.9913 7.4714 27.8662C7.59643 27.7412 7.66667 27.5716 7.66667 27.3948C7.66898 25.6601 8.15464 23.9604 9.06914 22.4863C9.98365 21.0122 11.2908 19.8221 12.844 19.0495L14.14 21.2935H19.932L21.212 19.0762C22.7506 19.8546 24.0435 21.0439 24.9475 22.5122C25.8515 23.9806 26.3311 25.6705 26.3333 27.3948C26.3333 27.5716 26.4036 27.7412 26.5286 27.8662C26.6536 27.9913 26.8232 28.0615 27 28.0615C27.1768 28.0615 27.3464 27.9913 27.4714 27.8662C27.5964 27.7412 27.6667 27.5716 27.6667 27.3948C27.6643 25.4366 27.1232 23.5168 26.1026 21.8457C25.0819 20.1745 23.621 18.8164 21.88 17.9202L22.1827 17.3948H26.3333V18.7282H30.3333V12.0615H29V10.7282H33Z" fill="#FFD700"/>
</g>
<defs>
<clipPath id="clip0_911_8971">
<rect width="32" height="32" fill="white"/>
</clipPath>
</defs>
</svg>
