<svg width="32" height="33" viewBox="0 0 32 33" fill="none" xmlns="http://www.w3.org/2000/svg">
<path fill-rule="evenodd" clip-rule="evenodd" d="M28.9987 10.3949C28.9987 11.8093 28.4368 13.1659 27.4366 14.1661C26.4364 15.1663 25.0799 15.7282 23.6654 15.7282C22.2509 15.7282 20.8943 15.1663 19.8941 14.1661C18.8939 13.1659 18.332 11.8093 18.332 10.3949C18.332 8.98037 18.8939 7.62381 19.8941 6.62362C20.8943 5.62343 22.2509 5.06152 23.6654 5.06152C25.0799 5.06152 26.4364 5.62343 27.4366 6.62362C28.4368 7.62381 28.9987 8.98037 28.9987 10.3949ZM26.52 11.0515C26.4803 11.2237 26.3739 11.373 26.2242 11.4668C26.0744 11.5606 25.8936 11.591 25.7214 11.5515L21.3107 10.5382C21.1383 10.4986 20.9887 10.3921 20.8948 10.2422C20.8009 10.0923 20.7704 9.91125 20.81 9.73886C20.8496 9.56647 20.9561 9.41687 21.106 9.32298C21.2559 9.22908 21.437 9.19859 21.6094 9.23819L26.02 10.2522C26.1053 10.2718 26.186 10.3081 26.2573 10.3589C26.3286 10.4097 26.3892 10.4741 26.4356 10.5483C26.482 10.6225 26.5134 10.7052 26.5279 10.7915C26.5423 10.8779 26.5397 10.9662 26.52 11.0515Z" fill="#0057B8"/>
<path d="M12.1841 7.22486C11.7527 6.20353 10.3087 6.10086 9.7294 7.04953L5.1934 14.4715C4.67007 15.3275 5.25473 16.4209 6.2754 16.4935L14.1861 17.0575C15.2061 17.1309 15.9487 16.1322 15.5594 15.2109L12.1841 7.22486Z" fill="#0057B8"/>
<path fill-rule="evenodd" clip-rule="evenodd" d="M24.5885 25.3015C25.5501 24.8532 26.2942 24.0413 26.6571 23.0444C27.0201 22.0474 26.9721 20.9471 26.5238 19.9855C26.3018 19.5094 25.9883 19.0817 25.601 18.7267C25.2137 18.3718 24.7603 18.0966 24.2666 17.9169C23.2697 17.5539 22.1694 17.6019 21.2078 18.0502L13.9572 21.4315C13.4811 21.6535 13.0534 21.9671 12.6985 22.3544C12.3436 22.7416 12.0684 23.195 11.8888 23.6886C11.7091 24.1822 11.6284 24.7064 11.6513 25.2312C11.6742 25.756 11.8002 26.2711 12.0222 26.7472C12.2441 27.2233 12.5577 27.651 12.945 28.0059C13.3323 28.3608 13.7856 28.6359 14.2792 28.8156C14.7728 28.9953 15.297 29.076 15.8218 29.0531C16.3466 29.0302 16.8617 28.9042 17.3378 28.6822L24.5885 25.3009V25.3015ZM20.9605 25.5215L24.0252 24.0929C24.659 23.7896 25.1475 23.2484 25.3845 22.5869C25.6215 21.9255 25.5879 21.1972 25.2909 20.5604C24.9939 19.9236 24.4576 19.4297 23.7985 19.1861C23.1395 18.9425 22.4109 18.9689 21.7712 19.2595L18.7065 20.6882L20.9598 25.5215H20.9605Z" fill="#0057B8"/>
</svg>
