<svg width="32" height="33" viewBox="0 0 32 33" fill="none" xmlns="http://www.w3.org/2000/svg">
<g clip-path="url(#clip0_911_9015)">
<path fill-rule="evenodd" clip-rule="evenodd" d="M8.6082 6.23352C9.35817 5.48333 10.3754 5.06175 11.4362 5.06152C12.4895 5.06152 14.0335 4.76819 14.5055 6.00952C14.698 6.51492 15.0395 6.94989 15.4848 7.2568C15.93 7.5637 16.4581 7.72804 16.9989 7.72804C17.5397 7.72804 18.0677 7.5637 18.513 7.2568C18.9582 6.94989 19.2997 6.51492 19.4922 6.00952C19.9642 4.76952 21.5095 5.06286 22.5615 5.06286C23.6217 5.06308 24.6383 5.48414 25.3882 6.23352L30.3322 11.1762C30.8321 11.6763 31.113 12.3544 31.113 13.0615C31.113 13.7686 30.8321 14.4468 30.3322 14.9469L28.3615 16.9175C27.6682 17.6109 26.7002 17.8362 25.8282 17.6189L26.1909 24.8615C26.218 25.4029 26.1347 25.9442 25.9462 26.4525C25.7577 26.9608 25.4679 27.4254 25.0943 27.8182C24.7207 28.211 24.2711 28.5238 23.7729 28.7375C23.2747 28.9512 22.7383 29.0615 22.1962 29.0615H11.8015C11.2594 29.0615 10.723 28.9512 10.2248 28.7375C9.72662 28.5238 9.27707 28.211 8.90347 27.8182C8.52987 27.4254 8.24001 26.9608 8.0515 26.4525C7.86299 25.9442 7.77976 25.4029 7.80686 24.8615L8.16953 17.6189C7.72268 17.7313 7.2543 17.7257 6.81023 17.6028C6.36616 17.4799 5.96162 17.2437 5.6362 16.9175L3.66553 14.9469C3.16561 14.4468 2.88477 13.7686 2.88477 13.0615C2.88477 12.3544 3.16561 11.6763 3.66553 11.1762L8.6082 6.23352Z" fill="#0057B8"/>
</g>
<defs>
<clipPath id="clip0_911_9015">
<rect width="32" height="32" fill="white" transform="translate(-0.000976562 0.569214)"/>
</clipPath>
</defs>
</svg>
