<svg width="19" height="21" viewBox="0 0 19 21" fill="none" xmlns="http://www.w3.org/2000/svg">
<path d="M16.6939 4.49115C16.5525 4.4179 16.4149 4.33759 16.2816 4.25054C15.8938 3.9935 15.5382 3.69063 15.2225 3.34846C14.4328 2.44244 14.1378 1.5233 14.0291 0.879769H14.0335C13.9427 0.345608 13.9803 0 13.9859 0H10.3887V13.9459C10.3887 14.1332 10.3887 14.3182 10.3808 14.5011C10.3808 14.5238 10.3787 14.5448 10.3773 14.5693C10.3773 14.5794 10.3773 14.5899 10.3752 14.6004C10.3752 14.603 10.3752 14.6056 10.3752 14.6083C10.3372 15.1086 10.1773 15.592 9.90928 16.0159C9.6413 16.4397 9.27354 16.791 8.83835 17.0389C8.38479 17.2976 7.8718 17.4333 7.34997 17.4326C5.67396 17.4326 4.31561 16.0624 4.31561 14.3703C4.31561 12.6781 5.67396 11.3079 7.34997 11.3079C7.66723 11.3076 7.98254 11.3577 8.28419 11.4562L8.28855 7.78405C7.37282 7.66545 6.44251 7.73842 5.55631 7.99834C4.67011 8.25827 3.84725 8.6995 3.13965 9.29422C2.51963 9.83433 1.99838 10.4788 1.59935 11.1986C1.4475 11.4611 0.874573 12.5158 0.805194 14.2277C0.761559 15.1993 1.0526 16.2059 1.19136 16.622V16.6307C1.27863 16.8757 1.6168 17.7117 2.16791 18.4165C2.6123 18.9819 3.13733 19.4785 3.7261 19.8904V19.8816L3.73483 19.8904C5.47629 21.0768 7.40713 20.999 7.40713 20.999C7.74137 20.9854 8.86104 20.999 10.1326 20.3948C11.5428 19.725 12.3457 18.7271 12.3457 18.7271C12.8586 18.1309 13.2665 17.4514 13.5518 16.7178C13.8773 15.8599 13.9859 14.8309 13.9859 14.4197V7.02109C14.0296 7.04734 14.6108 7.43275 14.6108 7.43275C14.6108 7.43275 15.4481 7.97085 16.7546 8.32127C17.6918 8.57063 18.9546 8.62313 18.9546 8.62313V5.04281C18.5122 5.09093 17.6137 4.95094 16.6939 4.49115Z" fill="white"/>
</svg>
