<svg width="24" height="28" viewBox="0 0 24 28" fill="none" xmlns="http://www.w3.org/2000/svg">
<g clip-path="url(#clip0_357_6607)">
<path d="M20.364 2.17936C19.0577 0.70686 16.6963 0.0755615 13.6754 0.0755615H4.90794C4.60905 0.0755725 4.31997 0.181029 4.09267 0.372971C3.86536 0.564913 3.71475 0.830749 3.66791 1.12269L0.0172859 24.0203C-0.0552766 24.4718 0.298255 24.8807 0.761005 24.8807H6.17375L7.53313 16.3536L7.49094 16.6206C7.58779 16.0179 8.10903 15.5733 8.72628 15.5733H11.2984C16.3513 15.5733 20.3079 13.5436 21.4636 7.672C21.4979 7.49834 21.5277 7.32932 21.5533 7.1642C21.4075 7.0878 21.4075 7.0878 21.5533 7.1642C21.8975 4.99401 21.551 3.51678 20.364 2.17936Z" fill="#27346A"/>
<path d="M9.60425 6.38242C9.75223 6.31274 9.91408 6.27663 10.078 6.27673H16.9515C17.7655 6.27673 18.5247 6.32911 19.2184 6.43953C19.4125 6.47015 19.6057 6.50669 19.7975 6.54912C20.0694 6.60846 20.3382 6.68108 20.6028 6.76673C20.9439 6.87937 21.2615 7.01057 21.5534 7.1642C21.8975 4.99318 21.551 3.51678 20.364 2.17936C19.057 0.706859 16.6963 0.0755615 13.6754 0.0755615H4.90719C4.28985 0.0755615 3.76466 0.520038 3.66791 1.12269L0.0172864 24.0195C-0.0552761 24.4717 0.298255 24.88 0.760255 24.88H6.17375L8.99404 7.19275C9.02177 7.0189 9.09179 6.85432 9.19809 6.71316C9.30439 6.572 9.44378 6.4585 9.60425 6.38242Z" fill="#27346A"/>
<path d="M21.4601 7.67211C20.3043 13.5428 16.3479 15.5734 11.2948 15.5734H8.72197C8.10472 15.5734 7.58337 16.018 7.48747 16.6207L5.79631 27.2232C5.73312 27.6183 6.04212 27.9764 6.44637 27.9764H11.0092C11.2706 27.9763 11.5233 27.884 11.722 27.7161C11.9208 27.5482 12.0524 27.3157 12.0932 27.0603L12.1377 26.8304L12.9976 21.4403L13.053 21.1424C13.0939 20.8871 13.2255 20.6546 13.4242 20.4867C13.6229 20.3188 13.8756 20.2265 14.137 20.2264H14.8198C19.2399 20.2264 22.7008 18.4505 23.7122 13.3145C24.1344 11.1681 23.9159 9.37612 22.7992 8.11742C22.4605 7.73617 22.0398 7.42131 21.5498 7.16431C21.5232 7.33027 21.4945 7.49845 21.4601 7.67211Z" fill="#2790C3"/>
<path d="M20.3374 6.68737C20.1572 6.63533 19.9753 6.58926 19.792 6.54923C19.6001 6.50749 19.407 6.47119 19.2129 6.44038C18.5184 6.32921 17.7598 6.27674 16.9451 6.27674H10.0724C9.90836 6.27637 9.7464 6.31279 9.59866 6.38327C9.438 6.45911 9.29846 6.57255 9.19212 6.71374C9.08577 6.85494 9.01583 7.01965 8.98835 7.1936L7.52754 16.3537L7.48535 16.6207C7.58145 16.018 8.1027 15.5734 8.72004 15.5734H11.2929C16.3459 15.5734 20.3023 13.5437 21.458 7.6721C21.4924 7.49845 21.5213 7.33017 21.5479 7.1643C21.2552 7.01151 20.9384 6.87948 20.5972 6.76757C20.5111 6.73935 20.4246 6.71261 20.3375 6.68737" fill="#1F264F"/>
</g>
<defs>
<clipPath id="clip0_357_6607">
<rect width="24" height="28" fill="white"/>
</clipPath>
</defs>
</svg>
