<svg width="32" height="12" viewBox="0 0 32 12" fill="none" xmlns="http://www.w3.org/2000/svg">
<g clip-path="url(#clip0_357_6598)">
<path d="M16.5496 4.11151C16.5314 5.55448 17.8325 6.35966 18.8126 6.83844C19.8196 7.32962 20.1579 7.64463 20.1539 8.08393C20.1464 8.75617 19.3506 9.05289 18.606 9.06441C17.3069 9.08459 16.5515 8.71282 15.951 8.43164L15.483 10.6268C16.0855 10.9051 17.2011 11.1478 18.358 11.1584C21.0736 11.1584 22.8502 9.81472 22.8599 7.73133C22.8705 5.08723 19.2114 4.94088 19.2364 3.75903C19.245 3.40067 19.5861 3.01825 20.3336 2.92102C20.7036 2.8719 21.725 2.83431 22.883 3.36885L23.3375 1.24499C22.7147 1.0177 21.9144 0.800047 20.9179 0.800047C18.3619 0.800047 16.5641 2.16207 16.5496 4.11151M27.7048 0.982986C27.2089 0.982986 26.791 1.27293 26.6045 1.71788L22.7254 11.0024H25.439L25.979 9.50648H29.295L29.6082 11.0024H32L29.9129 0.982986H27.7048M28.0844 3.68962L28.8675 7.45204H26.7227L28.0844 3.68962M13.2595 0.983112L11.1205 11.0023H13.7064L15.8444 0.982861H13.2595M9.43412 0.982861L6.74263 7.80263L5.65387 2.00407C5.52612 1.35676 5.02163 0.982986 4.46138 0.982986H0.061625L0 1.27394C0.90325 1.47041 1.9295 1.78729 2.55125 2.12636C2.93175 2.33348 3.04025 2.51454 3.16525 3.00673L5.22738 11.0024H7.96L12.1495 0.982986H9.43412" fill="url(#paint0_linear_357_6598)"/>
</g>
<defs>
<linearGradient id="paint0_linear_357_6598" x1="14.7117" y1="11.3662" x2="15.0122" y2="0.728049" gradientUnits="userSpaceOnUse">
<stop stop-color="#222357"/>
<stop offset="1" stop-color="#254AA5"/>
</linearGradient>
<clipPath id="clip0_357_6598">
<rect width="32" height="10.4" fill="white" transform="translate(0 0.800049)"/>
</clipPath>
</defs>
</svg>
