<svg width="24" height="25" viewBox="0 0 24 25" fill="none" xmlns="http://www.w3.org/2000/svg">
<path d="M4 9.5C4 6.67157 4 5.25736 4.87868 4.37868C5.75736 3.5 7.17157 3.5 10 3.5H14C16.8284 3.5 18.2426 3.5 19.1213 4.37868C20 5.25736 20 6.67157 20 9.5V16.3276C20 19.0109 20 20.3525 19.1557 20.7629C18.3114 21.1733 17.2565 20.3444 15.1465 18.6866L14.4713 18.156C13.2849 17.2239 12.6917 16.7578 12 16.7578C11.3083 16.7578 10.7151 17.2239 9.52871 18.156L8.85346 18.6866C6.74355 20.3444 5.68859 21.1733 4.84429 20.7629C4 20.3525 4 19.0109 4 16.3276V9.5Z" fill="#212529" stroke="#212529" stroke-width="2"/>
</svg>
