<svg width="32" height="32" viewBox="0 0 32 32" fill="none" xmlns="http://www.w3.org/2000/svg">
<path d="M25.2267 8.01332C24.96 7.22666 24.2133 6.66666 23.3333 6.66666H8.66667C7.78667 6.66666 7.05333 7.22666 6.77333 8.01332L4 16V26C4 27.1067 4.89333 28 6 28C7.10667 28 8 27.1067 8 26V25.3333H24V26C24 27.0933 24.8933 28 26 28C27.0933 28 28 27.1067 28 26V16L25.2267 8.01332ZM10 21.3333C8.89333 21.3333 8 20.44 8 19.3333C8 18.2267 8.89333 17.3333 10 17.3333C11.1067 17.3333 12 18.2267 12 19.3333C12 20.44 11.1067 21.3333 10 21.3333ZM22 21.3333C20.8933 21.3333 20 20.44 20 19.3333C20 18.2267 20.8933 17.3333 22 17.3333C23.1067 17.3333 24 18.2267 24 19.3333C24 20.44 23.1067 21.3333 22 21.3333ZM7.74667 13.3333L9.13333 9.33332H22.8533L24.24 13.3333H7.74667Z" fill="black"/>
</svg>
