<svg width="32" height="32" viewBox="0 0 32 32" fill="none" xmlns="http://www.w3.org/2000/svg">
<path d="M32 10.6667V9.33333H22.6667V10.6667H26.6667V12H25.3333V14.6667H20.9333L18.932 11.2H13.14L11.14 14.6667H6.66667V12H5.33333V10.6667H9.33333V9.33333H0V10.6667H4V12H2.66667V18.6667H6.66667V17.3333H10.8893L11.1773 17.832C9.42146 18.7224 7.94618 20.0812 6.91476 21.7581C5.88334 23.435 5.33601 25.3646 5.33333 27.3333C5.33333 27.5101 5.40357 27.6797 5.5286 27.8047C5.65362 27.9298 5.82319 28 6 28C6.17681 28 6.34638 27.9298 6.4714 27.8047C6.59643 27.6797 6.66667 27.5101 6.66667 27.3333C6.66898 25.5986 7.15464 23.8989 8.06914 22.4248C8.98365 20.9507 10.2908 19.7606 11.844 18.988L13.14 21.232H18.932L20.212 19.0147C21.7506 19.7931 23.0435 20.9824 23.9475 22.4507C24.8515 23.919 25.3311 25.609 25.3333 27.3333C25.3333 27.5101 25.4036 27.6797 25.5286 27.8047C25.6536 27.9298 25.8232 28 26 28C26.1768 28 26.3464 27.9298 26.4714 27.8047C26.5964 27.6797 26.6667 27.5101 26.6667 27.3333C26.6643 25.3751 26.1232 23.4553 25.1026 21.7842C24.0819 20.113 22.621 18.7549 20.88 17.8587L21.1827 17.3333H25.3333V18.6667H29.3333V12H28V10.6667H32Z" fill="black"/>
</svg>
