<svg width="176" height="63" viewBox="0 0 176 63" fill="none" xmlns="http://www.w3.org/2000/svg">
<g clip-path="url(#clip0_865_9305)">
<g clip-path="url(#clip1_865_9305)">
<path d="M62.6914 37.4708V14.9585H73.7405L72.8755 9.7583H76.2439L77.6332 18.2119H66.1647V37.4708H62.6914Z" fill="url(#paint0_linear_865_9305)"/>
<path d="M85.3391 32.1139C84.0415 33.734 82.5342 35.0929 80.8172 36.1773C79.1002 37.2749 77.2784 37.8236 75.3648 37.8236C74.8143 37.8236 74.3555 37.6799 73.9886 37.4055C73.6347 37.1311 73.4512 36.7653 73.4512 36.3341C73.4512 35.0145 73.7657 33.6034 74.3949 32.0747C75.024 30.546 75.9546 29.0696 77.2128 27.6454C78.458 26.2081 79.9522 24.98 81.6954 23.9347L79.9915 20.1587H83.6352L91.3814 37.4709H87.7377L85.3391 32.1139ZM77.3832 34.6356C78.0255 34.6356 79.0085 34.0999 80.3061 33.0285C81.6036 31.9571 82.8488 30.6766 84.0284 29.2002L82.8488 26.4956C81.8265 27.162 80.8697 27.9851 79.9784 28.952C79.0871 29.9188 78.3794 30.8857 77.842 31.8656C77.3046 32.8325 77.0425 33.6556 77.0425 34.322C77.0293 34.5311 77.1473 34.6356 77.3832 34.6356Z" fill="url(#paint1_linear_865_9305)"/>
<path d="M94.107 25.8948C94.9328 23.948 96.0862 22.4454 97.5804 21.3871C99.0745 20.3418 100.805 19.8062 102.771 19.8062C104.252 19.8062 105.431 20.4856 106.296 21.8444C107.161 23.2033 107.594 25.0717 107.594 27.4235C107.594 29.1613 107.437 30.9251 107.148 32.7413C106.847 34.5574 106.441 36.1253 105.929 37.4711H96.1255L96.2041 44.4352H92.9536L92.875 32.7935C92.875 30.1412 93.2813 27.8416 94.107 25.8948ZM103.478 34.4006C104.016 32.1664 104.278 29.8668 104.278 27.5019C104.278 25.8687 104.121 24.6797 103.832 23.948C103.531 23.2163 102.98 22.8635 102.168 22.8635C100.818 22.8635 99.7037 23.347 98.7993 24.3008C97.8949 25.2546 97.2265 26.4697 96.8071 27.9331C96.3745 29.3964 96.1648 30.9121 96.1648 32.4538V34.3876H103.478V34.4006Z" fill="url(#paint2_linear_865_9305)"/>
<path d="M126.192 20.1587V25.2805H123.059V23.0985H119.311V37.4709H116.047V23.0985H112.299V25.2805H109.166V20.1587H126.192Z" fill="url(#paint3_linear_865_9305)"/>
<path d="M62.6523 54.0502V44.9172H68.1834V46.0278H63.8975V48.7194H65.6145C66.0863 48.7194 66.532 48.7716 66.9252 48.8892C67.3184 49.0068 67.6592 49.1636 67.9475 49.3857C68.2359 49.6079 68.4587 49.8822 68.616 50.2089C68.7733 50.5355 68.8519 50.9144 68.8519 51.3587C68.8519 51.8029 68.7733 52.1818 68.6029 52.5215C68.4325 52.8612 68.2097 53.1356 67.9213 53.3708C67.633 53.5929 67.2922 53.7628 66.8859 53.8804C66.4927 53.998 66.0601 54.0502 65.5883 54.0502H62.6523ZM65.4965 52.9527C66.1388 52.9527 66.6631 52.809 67.03 52.5346C67.4101 52.2602 67.5936 51.8682 67.5936 51.3717C67.5936 50.8491 67.397 50.4571 67.0169 50.2089C66.6368 49.9606 66.1257 49.83 65.5096 49.83H63.8975V52.9396H65.4965V52.9527Z" fill="black"/>
<path d="M74.8528 54.0506L73.0178 49.3469L71.0911 54.0506H69.8066L72.4149 47.9097H73.647L76.111 54.0506H74.8528Z" fill="black"/>
<path d="M81.1997 50.105C81.1997 49.6346 81.0687 49.2949 80.8065 49.0598C80.5444 48.8246 80.1774 48.707 79.7056 48.707C79.3648 48.707 79.0371 48.7723 78.7226 48.903C78.4211 49.0336 78.159 49.2035 77.9492 49.3995L77.307 48.6808C77.5822 48.4065 77.9361 48.1843 78.3818 48.0145C78.8274 47.8446 79.2992 47.7532 79.8235 47.7532C80.1905 47.7532 80.5182 47.8054 80.8197 47.8969C81.1211 47.9884 81.3832 48.1321 81.6061 48.3281C81.8289 48.511 81.9993 48.7592 82.1172 49.0467C82.2483 49.3341 82.3138 49.6738 82.3138 50.0528C82.3269 50.1703 82.3269 50.2879 82.3269 50.4055C82.3269 50.5231 82.3269 50.6276 82.3269 50.7583V52.7312C82.3269 52.9664 82.3269 53.2016 82.34 53.4368C82.3532 53.672 82.3663 53.8941 82.3925 54.064H81.3046C81.2915 53.9202 81.2784 53.7634 81.2653 53.6066C81.2522 53.4499 81.2522 53.3061 81.2522 53.1493H81.226C80.9769 53.5152 80.6755 53.7896 80.3347 53.9594C79.9939 54.1293 79.5876 54.2077 79.1158 54.2077C78.8798 54.2077 78.6439 54.1815 78.3818 54.1162C78.1327 54.0509 77.8968 53.9464 77.6871 53.7896C77.4774 53.6328 77.307 53.4499 77.1628 53.2147C77.0187 52.9795 76.9531 52.679 76.9531 52.3262C76.9531 51.8558 77.0711 51.49 77.3201 51.2287C77.556 50.9543 77.8837 50.7583 78.2769 50.6146C78.6701 50.4709 79.1289 50.3794 79.64 50.3402C80.1512 50.301 80.6755 50.2879 81.1997 50.2879V50.105ZM80.9638 51.098C80.6362 51.098 80.3085 51.1111 79.9808 51.1372C79.6531 51.1633 79.3517 51.2156 79.0764 51.3071C78.8012 51.3985 78.5784 51.5161 78.408 51.6729C78.2376 51.8297 78.1458 52.0388 78.1458 52.3001C78.1458 52.483 78.1852 52.6528 78.2638 52.7835C78.3425 52.9142 78.4342 53.0187 78.5653 53.0971C78.6832 53.1755 78.8274 53.2408 78.9847 53.2669C79.142 53.3061 79.2993 53.3192 79.4565 53.3192C79.7449 53.3192 79.9939 53.2669 80.2167 53.1755C80.4395 53.084 80.623 52.9534 80.7803 52.7835C80.9376 52.6136 81.0556 52.4177 81.1342 52.2086C81.2129 51.9865 81.2522 51.7513 81.2522 51.5031V51.098H80.9638Z" fill="black"/>
<path d="M85.5769 54.0506H84.3711V47.9097H88.3294V48.8765H85.5769V54.0506Z" fill="black"/>
<path d="M95.824 50.9934C95.824 51.4637 95.7454 51.8949 95.575 52.2999C95.4046 52.6919 95.1687 53.0316 94.8804 53.3191C94.5789 53.6065 94.225 53.8286 93.8318 53.9854C93.4255 54.1422 92.993 54.2206 92.508 54.2206C92.0362 54.2206 91.5905 54.1422 91.1973 53.9854C90.8041 53.8286 90.4502 53.6065 90.1488 53.3191C89.8473 53.0316 89.6245 52.6919 89.4541 52.2999C89.2837 51.908 89.2051 51.4768 89.2051 50.9934C89.2051 50.5099 89.2837 50.0918 89.4541 49.6868C89.6245 49.2948 89.8604 48.9551 90.1488 48.6677C90.4502 48.3802 90.791 48.1581 91.1973 48.0013C91.6036 47.8445 92.0362 47.7661 92.508 47.7661C92.9799 47.7661 93.4255 47.8445 93.8318 48.0013C94.2381 48.1581 94.592 48.3802 94.8804 48.6677C95.1818 48.9551 95.4046 49.2948 95.575 49.6868C95.7323 50.0788 95.824 50.5099 95.824 50.9934ZM94.6051 50.9934C94.6051 50.6798 94.5527 50.3923 94.4609 50.131C94.3692 49.8697 94.225 49.6215 94.0415 49.4255C93.858 49.2295 93.6352 49.0727 93.3862 48.9551C93.124 48.8375 92.8357 48.7852 92.508 48.7852C92.1803 48.7852 91.892 48.8375 91.6298 48.9551C91.3677 49.0727 91.158 49.2295 90.9745 49.4255C90.791 49.6215 90.6599 49.8566 90.5551 50.131C90.4633 50.4054 90.4109 50.6929 90.4109 50.9934C90.4109 51.2939 90.4633 51.5813 90.5551 51.8426C90.6468 52.117 90.791 52.3522 90.9745 52.5482C91.158 52.7442 91.3808 52.914 91.6298 53.0316C91.892 53.1492 92.1803 53.2145 92.508 53.2145C92.8357 53.2145 93.124 53.1492 93.3862 53.0316C93.6483 52.914 93.8711 52.7572 94.0415 52.5482C94.225 52.3522 94.3561 52.117 94.4609 51.8426C94.5658 51.5683 94.6051 51.2939 94.6051 50.9934Z" fill="black"/>
<path d="M97.5976 55.8533H96.5098V53.0833H97.5059L99.6292 47.9224H100.874L102.84 53.0833H103.876V55.8533H102.788V54.0502H97.5976V55.8533ZM99.8651 50.1043L98.7248 53.0833H101.621L100.245 49.3204L99.8651 50.1043Z" fill="black"/>
<path d="M106.351 45.6748C106.351 45.8969 106.273 46.0798 106.115 46.2105C105.958 46.3542 105.775 46.4196 105.578 46.4196C105.368 46.4196 105.185 46.3542 105.041 46.2105C104.883 46.0668 104.805 45.8969 104.805 45.6748C104.805 45.4658 104.883 45.2828 105.041 45.1391C105.198 44.9954 105.381 44.917 105.578 44.917C105.775 44.917 105.958 44.9823 106.115 45.126C106.273 45.2698 106.351 45.4527 106.351 45.6748ZM106.168 54.05H104.975V47.9091H106.168V54.05Z" fill="black"/>
<path d="M113.008 49.4522L109.522 54.0513H108.303V47.9104H109.522V52.3789L113.008 47.9104H114.227V54.0513H113.008V49.4522ZM109.233 45.2842C109.299 45.4671 109.391 45.6369 109.522 45.7937C109.653 45.9505 109.81 46.0942 109.994 46.2118C110.177 46.3294 110.374 46.434 110.61 46.4993C110.832 46.5777 111.095 46.6038 111.37 46.6038C111.632 46.6038 111.881 46.5646 112.117 46.4993C112.353 46.4209 112.562 46.3294 112.733 46.2118C112.916 46.0942 113.061 45.9505 113.192 45.7937C113.323 45.6369 113.414 45.4671 113.48 45.2842L112.772 44.9314C112.68 45.1927 112.51 45.4148 112.261 45.5977C112.012 45.7807 111.711 45.8721 111.37 45.8721C111.029 45.8721 110.728 45.7807 110.478 45.5977C110.229 45.4148 110.059 45.1927 109.967 44.9314L109.233 45.2842Z" fill="black"/>
<path d="M117.493 54.0506H116.287V47.9097H117.493V50.3399H120.612V47.9097H121.818V54.0506H120.612V51.3068H117.493V54.0506Z" fill="black"/>
<path d="M128.592 49.4514L125.106 54.0506H123.887V47.9097H125.106V52.3782L128.592 47.9097H129.811V54.0506H128.592V49.4514Z" fill="black"/>
<path d="M136.588 49.4522L133.102 54.0513H131.883V47.9104H133.102V52.3789L136.588 47.9104H137.807V54.0513H136.588V49.4522ZM132.813 45.2842C132.879 45.4671 132.971 45.6369 133.102 45.7937C133.233 45.9505 133.39 46.0942 133.574 46.2118C133.757 46.3294 133.954 46.434 134.19 46.4993C134.412 46.5777 134.675 46.6038 134.95 46.6038C135.212 46.6038 135.461 46.5646 135.697 46.4993C135.933 46.4209 136.143 46.3294 136.313 46.2118C136.496 46.0942 136.641 45.9505 136.772 45.7937C136.903 45.6369 136.994 45.4671 137.06 45.2842L136.352 44.9314C136.261 45.1927 136.09 45.4148 135.841 45.5977C135.592 45.7807 135.291 45.8721 134.95 45.8721C134.609 45.8721 134.308 45.7807 134.059 45.5977C133.81 45.4148 133.639 45.1927 133.547 44.9314L132.813 45.2842Z" fill="black"/>
<path d="M147.06 47.7791C147.532 47.7791 147.965 47.8575 148.371 48.0273C148.764 48.1972 149.105 48.4193 149.393 48.7068C149.682 48.9942 149.904 49.3339 150.062 49.7259C150.219 50.1179 150.298 50.536 150.298 50.9802C150.298 51.4506 150.219 51.8687 150.062 52.2607C149.904 52.6526 149.682 52.9923 149.393 53.2667C149.105 53.5542 148.764 53.7763 148.371 53.9331C147.978 54.0899 147.532 54.1813 147.06 54.1944V57.1865H145.946V54.1944C145.487 54.1813 145.068 54.1029 144.675 53.9331C144.282 53.7763 143.941 53.5411 143.666 53.2537C143.377 52.9662 143.154 52.6265 142.997 52.2345C142.827 51.8426 142.748 51.4244 142.748 50.9671C142.748 50.5098 142.827 50.0917 142.984 49.6998C143.141 49.3078 143.364 48.9811 143.652 48.6937C143.941 48.4063 144.282 48.1841 144.662 48.0143C145.055 47.8575 145.487 47.766 145.946 47.753V44.2905H147.06V47.7791ZM143.941 50.9933C143.941 51.3069 143.98 51.5943 144.072 51.8687C144.164 52.1431 144.295 52.3783 144.478 52.5742C144.649 52.7702 144.871 52.9401 145.12 53.0577C145.369 53.1753 145.645 53.2406 145.959 53.2406V48.759C145.645 48.7721 145.356 48.8244 145.107 48.9419C144.858 49.0595 144.649 49.2163 144.478 49.4254C144.308 49.6214 144.177 49.8696 144.085 50.1309C143.98 50.3923 143.941 50.6797 143.941 50.9933ZM149.092 50.9933C149.092 50.6797 149.052 50.3923 148.961 50.1309C148.869 49.8696 148.738 49.6344 148.568 49.4254C148.397 49.2294 148.187 49.0595 147.925 48.9419C147.676 48.8244 147.388 48.759 147.06 48.746V53.2275C147.375 53.2145 147.663 53.1622 147.925 53.0446C148.174 52.927 148.397 52.7702 148.568 52.5612C148.738 52.3652 148.869 52.1169 148.961 51.8556C149.052 51.5943 149.092 51.2938 149.092 50.9933Z" fill="black"/>
<path d="M158.283 50.9934C158.283 51.4637 158.204 51.8949 158.034 52.2999C157.864 52.6919 157.628 53.0316 157.339 53.3191C157.038 53.6065 156.684 53.8286 156.291 53.9854C155.898 54.1422 155.452 54.2206 154.967 54.2206C154.495 54.2206 154.05 54.1422 153.656 53.9854C153.25 53.8286 152.909 53.6065 152.608 53.3191C152.306 53.0316 152.083 52.6919 151.913 52.2999C151.743 51.908 151.664 51.4768 151.664 50.9934C151.664 50.5099 151.743 50.0918 151.913 49.6868C152.083 49.2948 152.319 48.9551 152.608 48.6677C152.909 48.3802 153.25 48.1581 153.656 48.0013C154.063 47.8445 154.495 47.7661 154.967 47.7661C155.439 47.7661 155.884 47.8445 156.291 48.0013C156.697 48.1581 157.051 48.3802 157.339 48.6677C157.641 48.9551 157.864 49.2948 158.034 49.6868C158.204 50.0788 158.283 50.5099 158.283 50.9934ZM157.064 50.9934C157.064 50.6798 157.012 50.3923 156.92 50.131C156.828 49.8697 156.684 49.6215 156.501 49.4255C156.317 49.2295 156.094 49.0727 155.845 48.9551C155.583 48.8375 155.295 48.7852 154.967 48.7852C154.639 48.7852 154.351 48.8375 154.089 48.9551C153.827 49.0727 153.604 49.2295 153.433 49.4255C153.263 49.6215 153.119 49.8566 153.014 50.131C152.922 50.4054 152.87 50.6929 152.87 50.9934C152.87 51.2939 152.922 51.5813 153.014 51.8426C153.106 52.117 153.25 52.3522 153.433 52.5482C153.617 52.7442 153.84 52.914 154.089 53.0316C154.351 53.1492 154.639 53.2145 154.967 53.2145C155.295 53.2145 155.583 53.1492 155.845 53.0316C156.107 52.914 156.33 52.7572 156.501 52.5482C156.684 52.3522 156.815 52.117 156.92 51.8426C157.025 51.5683 157.064 51.2939 157.064 50.9934Z" fill="black"/>
<path d="M161.192 54.0506H159.986V47.9097H161.192V50.3399H164.312V47.9097H165.517V54.0506H164.312V51.3068H161.192V54.0506Z" fill="black"/>
<path d="M167.637 55.8538H166.549V53.0838H167.545L169.668 47.9229H170.913L172.879 53.0838H173.915V55.8538H172.827V54.0507H167.637V55.8538ZM169.917 50.1048L168.777 53.0838H171.674L170.297 49.3209L169.917 50.1048Z" fill="black"/>
<path d="M1.27734 20.1326V21.805V23.4774H3.05988V25.1368H4.82931V23.4774V21.805V20.1326H3.05988H1.27734Z" fill="url(#paint4_linear_865_9305)"/>
<path d="M10.1503 13.469H11.9197H13.7023V11.7966V10.1373H15.4717V8.46484H13.7023H11.9197V10.1373H10.1503V11.7966H8.38086V13.469H10.1503Z" fill="url(#paint5_linear_865_9305)"/>
<path d="M8.36708 10.1377H6.59766V11.8101H8.36708V10.1377Z" fill="url(#paint6_linear_865_9305)"/>
<path d="M24.3448 46.8127H22.5623V48.4851H20.7929V50.1445H19.0234V51.8169H20.7929V53.4893H22.5623V55.1486H24.3448V56.8211H26.1143V55.1486V53.4893H24.3448V51.8169H22.5623V50.1445H24.3448V48.4851H26.1143V46.8127V45.1533H24.3448V46.8127Z" fill="url(#paint7_linear_865_9305)"/>
<path d="M26.1132 30.1404H24.3438V31.8128H26.1132V30.1404Z" fill="url(#paint8_linear_865_9305)"/>
<path d="M24.3448 10.1368V8.46441H26.1143V6.79199H24.3448H22.5623V8.46441H20.7929V10.1368H19.0234V11.7962H20.7929V13.4686H22.5623V15.141H24.3448V16.8004H26.1143V15.141V13.4686H24.3448V11.7962H22.5623V10.1368H24.3448Z" fill="url(#paint9_linear_865_9305)"/>
<path d="M20.7924 26.8091H19.023V25.1367H17.2535V23.4774H15.4841V21.8049H13.7147H11.9453H10.1758H8.40641H6.59766V23.4774H8.36708V25.1498H10.1365V26.8222H11.9059V28.4946H13.6754V30.1409H15.4448H17.2142H18.9837H20.7531H22.5225V28.4685H20.7531V26.8091H20.7924ZM13.7016 25.1367H15.471V26.8091H13.7016V25.1367Z" fill="url(#paint10_linear_865_9305)"/>
<path d="M19.0252 45.1535H20.7946V43.4811H22.564V41.8086H24.3335V40.1362V38.4638V36.7914V35.119V33.4465H22.564V35.119H20.7946V36.7914H19.0252V38.4638H17.2558V40.1362H15.4863V41.8086V43.4811V45.1535V46.8259V48.4983H17.2558V46.8259H19.0252V45.1535ZM20.7946 40.1493V41.8217H19.0252V40.1493H20.7946Z" fill="url(#paint11_linear_865_9305)"/>
<path d="M17.2417 38.4763V36.8039H19.0111V35.1315H20.7805V33.459H22.55V31.7866H20.7805H19.0111H17.2417H15.4722H13.7028V33.459H11.9334V35.1315H10.164V36.8039H8.39453V38.4763H10.164V40.1487H11.9334H13.7028H15.4722V38.4763H17.2417ZM13.7028 36.817V35.1445H15.4722V36.817H13.7028Z" fill="url(#paint12_linear_865_9305)"/>
<path d="M15.4707 13.4685V15.1409V16.8133V18.4858V20.1582V21.8306H17.2401V23.4769H19.0096V25.1493H20.779V26.8217H22.5484V28.4942H24.3178V26.8217V25.1493V23.4769V21.8045V20.1321H22.5484V18.4596H20.779V16.8003H19.0096V15.1409H17.2401V13.4685H15.4707ZM20.7921 21.8045H19.0227V20.1321H20.7921V21.8045Z" fill="url(#paint13_linear_865_9305)"/>
<path d="M11.9198 30.1404H10.1504V31.8128H11.9198V30.1404Z" fill="url(#paint14_linear_865_9305)"/>
<path d="M11.9197 20.1325H13.7023V18.4731V16.8007V15.1414H11.9197V16.8007V18.4731H10.1503H8.38086V20.1325H10.1503H11.9197Z" fill="url(#paint15_linear_865_9305)"/>
<path d="M10.1503 31.8132H8.38086V33.4857H10.1503V31.8132Z" fill="url(#paint16_linear_865_9305)"/>
<path d="M10.1503 28.4685H8.38086V30.1409H10.1503V28.4685Z" fill="url(#paint17_linear_865_9305)"/>
<path d="M8.36708 33.4722H6.59766V35.1446H8.36708V33.4722Z" fill="url(#paint18_linear_865_9305)"/>
<path d="M8.36708 26.8091H6.59766V28.4815H8.36708V26.8091Z" fill="url(#paint19_linear_865_9305)"/>
<path d="M6.59873 15.1409H4.82931V13.4685H3.05988V15.1409H1.27734V16.8003H3.05988V18.4727H4.82931V16.8003H6.59873V15.1409Z" fill="url(#paint20_linear_865_9305)"/>
<path d="M27.252 22.7454C27.3175 22.7454 27.3961 22.7454 27.4617 22.7454C27.4879 22.7454 27.5272 22.7454 27.5534 22.7454C27.6058 22.7454 27.6714 22.7454 27.7238 22.7454C27.7631 22.7454 27.8024 22.7454 27.8418 22.7454C27.8942 22.7454 27.9335 22.7454 27.9859 22.7454C28.0253 22.7454 28.0646 22.7454 28.117 22.7454C28.1432 22.7454 28.1825 22.7454 28.2088 22.7454C28.3136 22.7454 28.4185 22.7584 28.5364 22.7715C28.5626 22.7715 28.5757 22.7715 28.602 22.7715C28.6675 22.7715 28.7199 22.7846 28.7855 22.7846C28.7986 22.7846 28.8248 22.7846 28.8379 22.7846C28.9034 22.7846 28.969 22.7976 29.0345 22.8107C29.1524 22.8238 29.2835 22.8368 29.4015 22.8499C29.4146 22.8499 29.4146 22.8499 29.4277 22.8499C29.8078 22.9022 30.1879 22.9675 30.5549 23.0328C31.669 23.2549 32.7568 23.5816 33.7661 23.9866H33.7792C33.884 24.0258 33.9889 24.0781 34.0937 24.1173C34.3821 24.2349 34.6573 24.3655 34.9326 24.5093C34.9588 24.5223 34.985 24.5354 35.0112 24.5485C35.0768 24.5877 35.1423 24.6138 35.2078 24.653C35.234 24.666 35.2734 24.6791 35.2996 24.7052C35.3651 24.7444 35.4306 24.7706 35.4962 24.8098C35.5224 24.8228 35.5486 24.8359 35.5748 24.849C35.6404 24.8882 35.6928 24.9143 35.7452 24.9535C35.7452 24.9404 35.7583 24.9143 35.7583 24.9012C33.2549 23.4901 30.3583 22.6931 27.2782 22.6931C27.2782 22.7454 27.2651 22.7454 27.252 22.7454Z" fill="url(#paint21_linear_865_9305)"/>
<path d="M27.252 22.7454C27.3175 22.7454 27.3961 22.7454 27.4617 22.7454C27.4879 22.7454 27.5272 22.7454 27.5534 22.7454C27.6058 22.7454 27.6714 22.7454 27.7238 22.7454C27.7631 22.7454 27.8024 22.7454 27.8418 22.7454C27.8942 22.7454 27.9335 22.7454 27.9859 22.7454C28.0253 22.7454 28.0646 22.7454 28.117 22.7454C28.1432 22.7454 28.1825 22.7454 28.2088 22.7454C28.3136 22.7454 28.4185 22.7584 28.5364 22.7715C28.5626 22.7715 28.5757 22.7715 28.602 22.7715C28.6675 22.7715 28.7199 22.7846 28.7855 22.7846C28.7986 22.7846 28.8248 22.7846 28.8379 22.7846C28.9034 22.7846 28.969 22.7976 29.0345 22.8107C29.1524 22.8238 29.2835 22.8368 29.4015 22.8499C29.4146 22.8499 29.4146 22.8499 29.4277 22.8499C29.8078 22.9022 30.1879 22.9675 30.5549 23.0328C31.669 23.2549 32.7568 23.5816 33.7661 23.9866H33.7792C33.884 24.0258 33.9889 24.0781 34.0937 24.1173C34.3821 24.2349 34.6573 24.3655 34.9326 24.5093C34.9588 24.5223 34.985 24.5354 35.0112 24.5485C35.0768 24.5877 35.1423 24.6138 35.2078 24.653C35.234 24.666 35.2734 24.6791 35.2996 24.7052C35.3651 24.7444 35.4306 24.7706 35.4962 24.8098C35.5224 24.8228 35.5486 24.8359 35.5748 24.849C35.6404 24.8882 35.6928 24.9143 35.7452 24.9535C35.7452 24.9404 35.7583 24.9143 35.7583 24.9012C33.2549 23.4901 30.3583 22.6931 27.2782 22.6931C27.2782 22.7454 27.2651 22.7454 27.252 22.7454Z" fill="url(#paint22_linear_865_9305)"/>
<path d="M53.6763 13.9397C53.6501 13.9266 53.6239 13.9136 53.6108 13.9005C53.3487 13.7437 53.0734 13.5869 52.7982 13.4432C52.7195 13.404 52.6278 13.3517 52.5492 13.3125C52.3526 13.208 52.1559 13.1035 51.9593 12.999C51.8676 12.9467 51.7758 12.9075 51.6841 12.8552C51.4875 12.7507 51.2778 12.6462 51.0812 12.5417C51.0025 12.5025 50.9239 12.4633 50.8453 12.4241C50.0064 12.006 49.1414 11.6009 48.2632 11.222C47.9355 11.0783 47.6079 10.9476 47.2802 10.817C47.2671 10.817 47.254 10.8039 47.2409 10.8039C44.1345 9.53652 40.8185 8.53046 37.3714 7.85104C36.2311 7.62892 35.0646 7.43293 33.8981 7.27614C33.8719 7.27614 33.8588 7.27614 33.8325 7.26308C33.4524 7.21081 33.0723 7.17162 32.6922 7.13242C32.6922 7.13242 32.6922 7.13242 32.6791 7.13242C32.4825 7.10629 32.2728 7.09322 32.0762 7.06709C32.0238 7.06709 31.9583 7.05402 31.9058 7.05402C31.7223 7.04096 31.5257 7.01483 31.3422 7.00176C31.2767 7.00176 31.2112 6.98869 31.1456 6.98869C30.818 6.96256 30.4772 6.93643 30.1495 6.92337C30.0578 6.92337 29.966 6.9103 29.8743 6.9103C29.7432 6.89723 29.6121 6.89723 29.4811 6.89723C29.3369 6.88417 29.1796 6.88417 29.0354 6.88417C28.9175 6.88417 28.7995 6.8711 28.6815 6.8711C28.5111 6.8711 28.3277 6.85804 28.1573 6.85804C28.0655 6.85804 27.9738 6.85804 27.8689 6.85804C27.5937 6.85804 27.3184 6.84497 27.0563 6.84497C27.0039 6.84497 26.9645 6.84497 26.9121 6.84497V22.7983C26.9383 22.7983 26.9514 22.7983 26.9776 22.7983C27.0694 22.7983 27.148 22.7983 27.2398 22.7983C27.2529 22.7983 27.2791 22.7983 27.2922 22.7983C27.3053 22.7983 27.3184 22.7983 27.3315 22.7983C35.8772 22.7983 42.8894 29.1091 44.318 37.2229C45.8253 34.5836 47.3195 31.6438 48.6171 28.691C48.9841 27.8678 49.338 27.0316 49.6787 26.1823C49.6919 26.1431 49.7181 26.0909 49.7312 26.0517C49.8885 25.6466 50.0588 25.2547 50.2161 24.8496C50.2292 24.8104 50.2554 24.7582 50.2686 24.719C50.57 23.9481 50.8584 23.1641 51.1467 22.3802C51.1729 22.3018 51.1991 22.2365 51.2254 22.1581C51.4875 21.4264 51.7365 20.6947 51.9856 19.963C52.0118 19.8716 52.038 19.7932 52.0773 19.7017C52.1953 19.3359 52.3132 18.97 52.4312 18.5911C52.4443 18.5258 52.4705 18.4735 52.4836 18.4082C52.9293 16.984 53.6895 14.606 53.8205 14.1487C53.8336 14.1095 53.8467 14.0704 53.8467 14.0704C53.7681 13.992 53.7157 13.9658 53.6763 13.9397Z" fill="url(#paint23_linear_865_9305)"/>
<path d="M35.7732 24.9541C35.7732 24.9672 35.7601 24.9933 35.7601 25.0064C35.7863 25.0194 35.8125 25.0325 35.8519 25.0586C35.8519 25.0586 35.865 25.0717 35.8781 25.0717C35.8912 25.0848 35.9174 25.0848 35.9174 25.0978C35.9174 25.0978 35.9174 25.1109 35.9043 25.124C35.8519 25.2677 35.6159 26.0386 35.4718 26.5089C35.4718 26.5351 35.4587 26.5481 35.4587 26.5743C35.4193 26.6918 35.38 26.8094 35.3407 26.9401C35.3276 26.9662 35.3276 26.9924 35.3145 27.0185C35.2358 27.2537 35.1572 27.5019 35.0655 27.7371C35.0523 27.7632 35.0523 27.7894 35.0392 27.8155C34.9475 28.0768 34.8557 28.3251 34.7509 28.5733C34.7509 28.5864 34.7378 28.5995 34.7378 28.6125C34.6854 28.7432 34.6329 28.8738 34.5805 29.0045C34.5805 29.0176 34.5674 29.0306 34.5674 29.0437C34.4494 29.3181 34.3446 29.5925 34.2266 29.8538C32.8766 32.9112 31.1465 35.4982 29.2984 37.3405L29.2853 37.3535C29.2329 37.4058 29.1805 37.4581 29.1149 37.5103L29.1018 37.5234C28.9839 37.641 28.8659 37.7455 28.7479 37.8631C28.7479 37.8631 28.7479 37.8631 28.7348 37.8762C28.6824 37.9284 28.63 37.9676 28.5776 38.0199C28.5644 38.0329 28.5513 38.046 28.5382 38.0591C28.4989 38.0983 28.4465 38.1375 28.4072 38.1767C28.3941 38.1897 28.381 38.2028 28.3678 38.2159C28.3154 38.2551 28.2761 38.2943 28.2237 38.3335C28.2106 38.3465 28.1975 38.3465 28.1975 38.3596C28.145 38.4119 28.0795 38.4511 28.0271 38.5033C28.014 38.5033 28.014 38.5164 28.0009 38.5164C27.9484 38.5556 27.896 38.5948 27.8567 38.634C27.8436 38.647 27.8174 38.6601 27.8042 38.6732C27.7649 38.6993 27.7256 38.7254 27.6863 38.7646C27.6863 38.7646 27.6732 38.7646 27.6732 38.7777C27.4504 38.9868 27.2144 39.1827 26.9785 39.3918V56.7301C27.0047 56.7562 27.044 56.7693 27.0703 56.7954C27.0965 56.8215 27.1358 56.8346 27.162 56.8607C27.3324 56.7432 27.5028 56.6256 27.6863 56.508C27.7387 56.4688 27.7911 56.4296 27.8567 56.3904C27.9746 56.2989 28.1057 56.2205 28.2237 56.1291C28.2892 56.0899 28.3416 56.0376 28.4072 55.9984C28.5251 55.9069 28.6562 55.8155 28.7742 55.7371C28.8266 55.6979 28.8921 55.6587 28.9445 55.6064C29.1018 55.4888 29.246 55.3712 29.4033 55.2537C29.4295 55.2406 29.4426 55.2145 29.4688 55.2014C29.6523 55.0577 29.8227 54.9139 30.0062 54.7702C30.0324 54.7441 30.0717 54.718 30.0979 54.6918C30.2421 54.5742 30.3863 54.4566 30.5305 54.326C30.5698 54.2868 30.6222 54.2476 30.6615 54.2084C30.8057 54.0908 30.9368 53.9732 31.081 53.8556C31.1203 53.8164 31.1596 53.7903 31.1989 53.7511C31.3693 53.6074 31.5266 53.4636 31.697 53.3199C31.7101 53.3069 31.7101 53.3069 31.7232 53.2938C32.0902 52.9671 32.4572 52.6144 32.8242 52.2616C32.8373 52.2485 32.8504 52.2355 32.8635 52.2224C33.0339 52.0656 33.2043 51.8957 33.3747 51.7259C33.3878 51.7128 33.4009 51.6998 33.414 51.6867C37.3198 47.8062 41.0553 42.8412 44.3582 37.053C43.4539 31.8267 40.2165 27.4366 35.7732 24.9541Z" fill="url(#paint24_linear_865_9305)"/>
</g>
</g>
<defs>
<linearGradient id="paint0_linear_865_9305" x1="70.3601" y1="9.64638" x2="69.15" y2="50.9176" gradientUnits="userSpaceOnUse">
<stop stop-color="#00A3FB"/>
<stop offset="0.9697" stop-color="#001FB6"/>
<stop offset="1" stop-color="#015EB5"/>
</linearGradient>
<linearGradient id="paint1_linear_865_9305" x1="83.2099" y1="10.0232" x2="81.9999" y2="51.2944" gradientUnits="userSpaceOnUse">
<stop stop-color="#00A3FB"/>
<stop offset="0.9697" stop-color="#001FB6"/>
<stop offset="1" stop-color="#015EB5"/>
</linearGradient>
<linearGradient id="paint2_linear_865_9305" x1="100.821" y1="10.5398" x2="99.6106" y2="51.8109" gradientUnits="userSpaceOnUse">
<stop stop-color="#00A3FB"/>
<stop offset="0.9697" stop-color="#001FB6"/>
<stop offset="1" stop-color="#015EB5"/>
</linearGradient>
<linearGradient id="paint3_linear_865_9305" x1="118.028" y1="11.0441" x2="116.818" y2="52.3152" gradientUnits="userSpaceOnUse">
<stop stop-color="#00A3FB"/>
<stop offset="0.9697" stop-color="#001FB6"/>
<stop offset="1" stop-color="#015EB5"/>
</linearGradient>
<linearGradient id="paint4_linear_865_9305" x1="38.3173" y1="22.6385" x2="11.6141" y2="22.6385" gradientUnits="userSpaceOnUse">
<stop stop-color="#ED6C13"/>
<stop offset="0.9697" stop-color="#F8D500"/>
</linearGradient>
<linearGradient id="paint5_linear_865_9305" x1="38.3169" y1="10.9671" x2="11.6137" y2="10.9671" gradientUnits="userSpaceOnUse">
<stop stop-color="#ED6C13"/>
<stop offset="0.9697" stop-color="#F8D500"/>
</linearGradient>
<linearGradient id="paint6_linear_865_9305" x1="38.3163" y1="10.9675" x2="11.6131" y2="10.9675" gradientUnits="userSpaceOnUse">
<stop stop-color="#ED6C13"/>
<stop offset="0.9697" stop-color="#F8D500"/>
</linearGradient>
<linearGradient id="paint7_linear_865_9305" x1="38.3167" y1="50.9843" x2="11.6135" y2="50.9843" gradientUnits="userSpaceOnUse">
<stop stop-color="#ED6C13"/>
<stop offset="0.9697" stop-color="#F8D500"/>
</linearGradient>
<linearGradient id="paint8_linear_865_9305" x1="38.3157" y1="30.9746" x2="11.6125" y2="30.9746" gradientUnits="userSpaceOnUse">
<stop stop-color="#ED6C13"/>
<stop offset="0.9697" stop-color="#F8D500"/>
</linearGradient>
<linearGradient id="paint9_linear_865_9305" x1="38.3167" y1="11.8004" x2="11.6135" y2="11.8004" gradientUnits="userSpaceOnUse">
<stop stop-color="#ED6C13"/>
<stop offset="0.9697" stop-color="#F8D500"/>
</linearGradient>
<linearGradient id="paint10_linear_865_9305" x1="38.3163" y1="25.9727" x2="11.6131" y2="25.9727" gradientUnits="userSpaceOnUse">
<stop stop-color="#ED6C13"/>
<stop offset="0.9697" stop-color="#F8D500"/>
</linearGradient>
<linearGradient id="paint11_linear_865_9305" x1="38.3185" y1="40.9798" x2="11.6153" y2="40.9798" gradientUnits="userSpaceOnUse">
<stop stop-color="#ED6C13"/>
<stop offset="0.9697" stop-color="#F8D500"/>
</linearGradient>
<linearGradient id="paint12_linear_865_9305" x1="38.3175" y1="35.9769" x2="11.6143" y2="35.9769" gradientUnits="userSpaceOnUse">
<stop stop-color="#ED6C13"/>
<stop offset="0.9697" stop-color="#F8D500"/>
</linearGradient>
<linearGradient id="paint13_linear_865_9305" x1="38.316" y1="20.9706" x2="11.6128" y2="20.9706" gradientUnits="userSpaceOnUse">
<stop stop-color="#ED6C13"/>
<stop offset="0.9697" stop-color="#F8D500"/>
</linearGradient>
<linearGradient id="paint14_linear_865_9305" x1="38.317" y1="30.9746" x2="11.6138" y2="30.9746" gradientUnits="userSpaceOnUse">
<stop stop-color="#ED6C13"/>
<stop offset="0.9697" stop-color="#F8D500"/>
</linearGradient>
<linearGradient id="paint15_linear_865_9305" x1="38.3169" y1="17.6368" x2="11.6137" y2="17.6368" gradientUnits="userSpaceOnUse">
<stop stop-color="#ED6C13"/>
<stop offset="0.9697" stop-color="#F8D500"/>
</linearGradient>
<linearGradient id="paint16_linear_865_9305" x1="38.3169" y1="32.6424" x2="11.6137" y2="32.6424" gradientUnits="userSpaceOnUse">
<stop stop-color="#ED6C13"/>
<stop offset="0.9697" stop-color="#F8D500"/>
</linearGradient>
<linearGradient id="paint17_linear_865_9305" x1="38.3169" y1="29.3076" x2="11.6137" y2="29.3076" gradientUnits="userSpaceOnUse">
<stop stop-color="#ED6C13"/>
<stop offset="0.9697" stop-color="#F8D500"/>
</linearGradient>
<linearGradient id="paint18_linear_865_9305" x1="38.3163" y1="34.3095" x2="11.6131" y2="34.3095" gradientUnits="userSpaceOnUse">
<stop stop-color="#ED6C13"/>
<stop offset="0.9697" stop-color="#F8D500"/>
</linearGradient>
<linearGradient id="paint19_linear_865_9305" x1="38.3163" y1="27.6401" x2="11.6131" y2="27.6401" gradientUnits="userSpaceOnUse">
<stop stop-color="#ED6C13"/>
<stop offset="0.9697" stop-color="#F8D500"/>
</linearGradient>
<linearGradient id="paint20_linear_865_9305" x1="38.3173" y1="15.9689" x2="11.6141" y2="15.9689" gradientUnits="userSpaceOnUse">
<stop stop-color="#ED6C13"/>
<stop offset="0.9697" stop-color="#F8D500"/>
</linearGradient>
<linearGradient id="paint21_linear_865_9305" x1="45.374" y1="24.1287" x2="9.06832" y2="23.4466" gradientUnits="userSpaceOnUse">
<stop stop-color="#0085FB"/>
<stop offset="0.9697" stop-color="#001FB6"/>
<stop offset="1" stop-color="#015EB5"/>
</linearGradient>
<linearGradient id="paint22_linear_865_9305" x1="37.628" y1="23.9841" x2="-20.055" y2="22.9005" gradientUnits="userSpaceOnUse">
<stop stop-color="#0085FB"/>
<stop offset="0.9697" stop-color="#001FB6"/>
<stop offset="1" stop-color="#015EB5"/>
</linearGradient>
<linearGradient id="paint23_linear_865_9305" x1="12.4198" y1="20.9015" x2="64.5759" y2="23.2766" gradientUnits="userSpaceOnUse">
<stop stop-color="#0085FB"/>
<stop offset="0.9697" stop-color="#001FB6"/>
<stop offset="1" stop-color="#015EB5"/>
</linearGradient>
<linearGradient id="paint24_linear_865_9305" x1="18.1041" y1="52.5434" x2="44.5485" y2="29.6851" gradientUnits="userSpaceOnUse">
<stop stop-color="#0085FB"/>
<stop offset="0.9697" stop-color="#001FB6"/>
<stop offset="1" stop-color="#015EB5"/>
</linearGradient>
<clipPath id="clip0_865_9305">
<rect width="176" height="63" fill="white"/>
</clipPath>
<clipPath id="clip1_865_9305">
<rect width="184" height="55.4494" fill="white" transform="translate(-8 4)"/>
</clipPath>
</defs>
</svg>
