<svg width="30" height="30" viewBox="0 0 30 30" fill="none" xmlns="http://www.w3.org/2000/svg">
<path d="M19.5834 9.45947H10.4171C10.4171 9.45947 4 14.9979 4 21.4614C4 25.1529 6.75955 26.9999 8.58313 26.9999H21.4169C23.2481 26.9999 26 25.1527 26 21.4614C26 14.9979 19.5829 9.45947 19.5829 9.45947H19.5834ZM15.9158 22.2902V23.7685H14.0846L14.0844 22.2952C12.7347 22.0425 11.8869 21.2037 11.8268 19.9858H13.4147C13.4924 20.625 14.1322 21.0369 15.0579 21.0369C15.9108 21.0369 16.5153 20.6201 16.5153 20.0263C16.5153 19.521 16.1241 19.2329 15.1608 19.0157L14.1397 18.796C12.7097 18.4953 12.0073 17.7448 12.0073 16.5396C12.0073 15.3344 12.8051 14.4651 14.0745 14.1796V12.6912H15.9057V14.1819C17.1449 14.4599 17.9704 15.3113 18.0104 16.4559L16.4777 16.456C16.4 15.8319 15.8229 15.4151 15.0302 15.4151C14.2376 15.4151 13.6655 15.7992 13.6655 16.4005C13.6655 16.8882 14.0393 17.1586 14.9599 17.3657L15.9057 17.5679C17.4836 17.9013 18.1634 18.5785 18.1634 19.8142C18.1635 21.1355 17.3206 22.0199 15.9158 22.2903L15.9158 22.2902Z" fill="#0057B8"/>
<path d="M19.5836 3.91842H17.05C16.5266 3.3338 15.7818 3 15.0004 3C14.2189 3 13.4742 3.33382 12.9508 3.91842H10.4171C10.114 3.91965 9.83126 4.07158 9.66117 4.32414C9.49108 4.57671 9.45574 4.89766 9.56667 5.18178L10.4171 7.60996H19.5833L20.4338 5.18178C20.5447 4.89767 20.5094 4.57673 20.3393 4.32414C20.1692 4.07156 19.8864 3.91965 19.5833 3.91842H19.5836Z" fill="#0057B8"/>
</svg>
