<svg width="30" height="30" viewBox="0 0 30 30" fill="none" xmlns="http://www.w3.org/2000/svg">
<path d="M21.9738 13.9346H25.9757C25.4899 8.67785 21.3029 4.48631 16.0518 4V8.00624C19.1052 8.44627 21.5342 10.8778 21.9738 13.9346L21.9738 13.9346Z" fill="#0057B8"/>
<path d="M13.9701 8.00624V4C11.0554 4.27784 8.46451 5.69047 6.66016 7.79786L9.92192 10.0905C10.9629 9.0021 12.3972 8.23785 13.9702 8.00624H13.9701Z" fill="#0057B8"/>
<path d="M15.0117 22.0404C14.5721 22.0404 14.1326 21.994 13.7163 21.9245L12.4209 25.676C13.2537 25.8844 14.1328 26.0002 15.0349 26.0002C20.7719 26.0002 25.4678 21.6234 25.9999 16.0193L21.9747 16.0194C21.4889 19.4236 18.551 22.0404 15.0118 22.0404L15.0117 22.0404Z" fill="#0057B8"/>
<path d="M7.95579 14.9764C7.95579 13.8417 8.23334 12.7532 8.71917 11.8039L5.45741 9.51123C4.53218 11.1322 4 12.9849 4 14.9764C4 19.4227 6.63714 23.2437 10.4309 25.0037L11.7496 21.229C9.48243 20.0479 7.95579 17.6858 7.95579 14.9764V14.9764Z" fill="#0057B8"/>
<path d="M14.3877 19.0525V19.8861C14.3877 20.0251 14.5034 20.1178 14.6191 20.1178H15.4982C15.637 20.1178 15.7296 20.002 15.7296 19.8861V19.0525L15.8221 19.0294C16.4467 18.9135 16.9556 18.6588 17.3256 18.2652C17.7189 17.8484 17.927 17.2925 17.927 16.6442C17.927 16.482 17.904 16.2969 17.8807 16.1578C17.8577 15.9956 17.8113 15.8567 17.765 15.741C17.7187 15.6252 17.6493 15.4863 17.5799 15.3705C17.5106 15.2546 17.4179 15.1621 17.3255 15.0694C17.233 14.9768 17.1173 14.9072 17.0016 14.8146C16.8859 14.7452 16.7472 14.6757 16.6315 14.6062C16.539 14.5599 16.4001 14.4904 16.1919 14.421C16.0299 14.3515 15.868 14.3051 15.7293 14.2588C15.5905 14.2124 15.4054 14.1662 15.2204 14.0966C14.7577 13.9577 14.457 13.8187 14.2719 13.6798C14.0868 13.564 13.9943 13.402 13.9943 13.2167C13.9943 13.0314 14.0637 12.8694 14.2257 12.7536C14.3877 12.6378 14.619 12.5914 14.8965 12.5914C15.4285 12.5914 16.0068 12.7767 16.5621 13.1473C16.6545 13.2167 16.7935 13.1936 16.8859 13.1009L17.603 12.1977C17.6493 12.1514 17.6724 12.0819 17.6493 12.0125C17.6493 11.943 17.603 11.8966 17.5568 11.8503C17.3254 11.6881 17.0479 11.5261 16.7471 11.3872C16.4233 11.2482 16.0994 11.1324 15.7755 11.0399L15.6831 11.0168V10.0441C15.6831 9.90522 15.5674 9.8125 15.4517 9.8125H14.5726C14.4338 9.8125 14.3412 9.92832 14.3412 10.0441V10.9473L14.295 10.9937C13.6704 11.0862 13.1615 11.341 12.7915 11.7348C12.3983 12.1748 12.1901 12.7074 12.1901 13.3327C12.1901 13.4716 12.2132 13.6338 12.2132 13.7727C12.2362 13.9117 12.2825 14.0506 12.3288 14.1433C12.3752 14.2591 12.4213 14.3749 12.4909 14.4675C12.5602 14.5601 12.6296 14.6759 12.7223 14.7453C12.8147 14.8379 12.9073 14.9075 12.9767 14.977C13.0692 15.0464 13.1618 15.1159 13.3006 15.1854C13.4163 15.2548 13.532 15.3012 13.6244 15.3475C13.7401 15.3939 13.8558 15.4634 13.9946 15.5097L14.1103 15.5561C14.2027 15.5792 14.2954 15.6256 14.3647 15.6487L14.758 15.7876C14.92 15.8339 15.0818 15.8801 15.1976 15.9265C15.3133 15.9729 15.4289 16.0191 15.5445 16.0654C15.6369 16.1118 15.7296 16.158 15.7989 16.2043C15.8683 16.2507 15.9146 16.2969 15.961 16.3665C16.0073 16.436 16.0303 16.4823 16.0534 16.5518C16.0765 16.6213 16.0765 16.6907 16.0765 16.7834C16.0765 16.9918 15.984 17.154 15.822 17.2929C15.4519 17.5708 14.7811 17.5477 14.064 17.2466C13.7401 17.1076 13.4393 16.9224 13.1618 16.6907C13.1155 16.6444 13.0693 16.6213 12.9998 16.6213C12.9304 16.6213 12.861 16.6444 12.8147 16.7138L12.0744 17.617C12.005 17.7095 12.005 17.8486 12.0974 17.9412C12.6989 18.5201 13.4391 18.8907 14.2487 19.0296L14.3877 19.0525Z" fill="#0057B8"/>
</svg>
