<svg width="32" height="32" viewBox="0 0 32 32" fill="none" xmlns="http://www.w3.org/2000/svg">
<path d="M13.5 21.7697C13.5 20.6651 14.3954 19.7697 15.5 19.7697H16.5C17.6046 19.7697 18.5 20.6651 18.5 21.7697V28.0001C18.5 29.1046 17.6046 30.0001 16.5 30.0001H15.5C14.3954 30.0001 13.5 29.1046 13.5 28.0001V21.7697Z" fill="#FFD700"/>
<rect x="8" y="2" width="16" height="15" rx="1" fill="#FFD700"/>
<path d="M10.0005 16H22.0005V18C22.0005 19.1046 21.1051 20 20.0005 20H12.0005C10.8959 20 10.0005 19.1046 10.0005 18V16Z" fill="#FFD700"/>
<path d="M10.5005 5C10.5005 4.72386 10.7243 4.5 11.0005 4.5H21.0005C21.2766 4.5 21.5005 4.72386 21.5005 5V12C21.5005 12.2761 21.2766 12.5 21.0005 12.5H11.0005C10.7243 12.5 10.5005 12.2761 10.5005 12V5Z" fill="#FFD700" stroke="#0057B8"/>
<path d="M13.0005 8.5L17.0005 7" stroke="#0057B8" stroke-linecap="round"/>
<path d="M15 10.5L19 9" stroke="#0057B8" stroke-linecap="round"/>
<path d="M10.5 16.5V15.4C10.5 15.1791 10.6791 15 10.9 15H13.5" stroke="#0057B8" stroke-linecap="round"/>
<path d="M21.5005 16.5V15.4C21.5005 15.1791 21.3214 15 21.1005 15H18.5005" stroke="#0057B8" stroke-linecap="round"/>
<path d="M17.35 16.25C17.35 16.9956 16.7456 17.6 16 17.6C15.2544 17.6 14.65 16.9956 14.65 16.25C14.65 15.5044 15.2544 14.9 16 14.9C16.7456 14.9 17.35 15.5044 17.35 16.25Z" fill="#FFD700" stroke="#0057B8" stroke-width="0.8"/>
</svg>
