<svg width="32" height="33" viewBox="0 0 32 33" fill="none" xmlns="http://www.w3.org/2000/svg">
<path fill-rule="evenodd" clip-rule="evenodd" d="M16.9992 25.0615L19.6459 6.83352C19.683 6.61435 19.6674 6.38951 19.6006 6.17752C19.5317 5.96095 19.4145 5.76285 19.2579 5.59819C19.0953 5.42726 18.8986 5.29236 18.6806 5.20219C18.4566 5.10909 18.2164 5.06128 17.9739 5.06152H6.69256C6.44856 5.06152 6.20723 5.10952 5.9859 5.20152C5.76759 5.29182 5.57067 5.42696 5.4079 5.59819C5.25126 5.76285 5.13409 5.96095 5.06523 6.17752C4.99856 6.39086 4.98256 6.61486 5.01923 6.83352L7.6659 25.0615V26.7282C7.6659 27.3382 7.89856 27.9289 8.32056 28.3682C8.52857 28.5866 8.77862 28.7605 9.05566 28.8797C9.3327 28.9989 9.63099 29.0607 9.93256 29.0615H14.7326C15.3426 29.0615 15.9219 28.8082 16.3446 28.3682C16.766 27.9263 17.0006 27.3388 16.9992 26.7282V25.0615ZM13.0606 11.2695C13.0606 11.0927 12.9903 10.9231 12.8653 10.7981C12.7403 10.6731 12.5707 10.6029 12.3939 10.6029C12.2171 10.6029 12.0475 10.6731 11.9225 10.7981C11.7975 10.9231 11.7272 11.0927 11.7272 11.2695V13.6249H9.31656C9.13975 13.6249 8.97018 13.6951 8.84516 13.8201C8.72014 13.9451 8.6499 14.1147 8.6499 14.2915C8.6499 14.4683 8.72014 14.6379 8.84516 14.7629C8.97018 14.888 9.13975 14.9582 9.31656 14.9582H11.7272V17.3135C11.7272 17.4903 11.7975 17.6599 11.9225 17.7849C12.0475 17.91 12.2171 17.9802 12.3939 17.9802C12.5707 17.9802 12.7403 17.91 12.8653 17.7849C12.9903 17.6599 13.0606 17.4903 13.0606 17.3135V14.9582H15.4706C15.6474 14.9582 15.8169 14.888 15.942 14.7629C16.067 14.6379 16.1372 14.4683 16.1372 14.2915C16.1372 14.1147 16.067 13.9451 15.942 13.8201C15.8169 13.6951 15.6474 13.6249 15.4706 13.6249H13.0606V11.2695ZM15.3832 27.4449C15.5612 27.2595 15.6659 27.0022 15.6659 26.7282V25.7282H8.99923V26.7282C8.99923 27.0015 9.1039 27.2595 9.2819 27.4449C9.45923 27.6295 9.6939 27.7282 9.93256 27.7282H14.7326C14.9712 27.7282 15.2059 27.6295 15.3832 27.4449Z" fill="#0057B8"/>
<path d="M28.9993 5.72819C28.9993 5.55138 28.9291 5.38181 28.8041 5.25679C28.6791 5.13176 28.5095 5.06152 28.3327 5.06152C28.1559 5.06152 27.9863 5.13176 27.8613 5.25679C27.7363 5.38181 27.666 5.55138 27.666 5.72819H23.666V7.06152H27.666V8.39486H23.666V9.72819H27.666V11.0615H23.666V12.3949H27.666V13.7229L25.1613 16.6262C25.0569 16.7472 24.9994 16.9017 24.9993 17.0615V28.3949C24.9993 28.5717 25.0696 28.7412 25.1946 28.8663C25.3196 28.9913 25.4892 29.0615 25.666 29.0615C25.8428 29.0615 26.0124 28.9913 26.1374 28.8663C26.2624 28.7412 26.3327 28.5717 26.3327 28.3949V17.3095L28.8373 14.4062C28.9418 14.2852 28.9993 14.1307 28.9993 13.9709V5.72819Z" fill="#0057B8"/>
</svg>
