<svg width="30" height="32" viewBox="0 0 30 32" fill="none" xmlns="http://www.w3.org/2000/svg">
<path d="M7.98507 16.2162H6.73047V19.8277H7.98507V18.0916C7.98245 18.068 7.97197 18.0486 7.97197 18.0237C7.97197 17.999 7.98245 17.9794 7.98507 17.9558V16.2162Z" fill="#0057B8"/>
<path d="M9.09984 20.3873C9.09984 20.6952 8.84939 20.9456 8.54152 20.9456H4.98877V22.3387H6.15869C6.16393 22.3387 6.16786 22.336 6.17179 22.336C6.17703 22.336 6.18096 22.3387 6.18489 22.3387H8.54173C8.8496 22.3387 9.10005 22.5891 9.10005 22.897V24.7047L13.991 24.7073V18.5838H9.10005L9.09984 20.3873Z" fill="#0057B8"/>
<path d="M9.94912 2.54904L9.76527 0.995716H9.76789C9.75741 0.964274 9.74038 0.935672 9.73645 0.901826C9.68426 0.457054 9.51089 0.300487 9.38425 0.222343C9.13272 0.0644791 8.74798 0.0408962 8.30975 0.087844L8.54447 1.6595C8.58748 1.88898 8.53399 2.13942 8.39184 2.34686C8.2497 2.55429 8.03441 2.69381 7.78659 2.73945L6.15882 3.03946C6.10161 3.04994 6.04418 3.05518 5.98676 3.05518C5.79767 3.05518 5.61382 2.99906 5.45465 2.88946C5.24722 2.74731 5.1077 2.53202 5.06206 2.2842L4.85201 1.07655C4.77646 1.10144 4.68126 1.1366 4.60943 1.15756C3.58428 1.46128 3.86092 3.97337 4.06291 5.80706C4.23518 7.38397 4.32777 8.37922 4.03955 8.97133C3.24257 10.6094 2.3428 11.6555 1.62005 12.4941C0.996686 13.2193 0.545319 13.7422 0.526984 14.2562L0.49707 15.0988H4.11768C4.74367 13.3511 6.39353 12.1563 8.29531 12.1563H13.9923L13.9921 6.00539C11.2101 5.94949 10.3833 5.41847 9.94897 2.54917L9.94912 2.54904Z" fill="#0057B8"/>
<path d="M7.98507 23.4549H6.73047V27.0651H7.98507V25.3265C7.98245 25.3043 7.97197 25.2848 7.97197 25.2626C7.97197 25.2403 7.98245 25.2209 7.98507 25.1986V23.4549Z" fill="#0057B8"/>
<path d="M5.32429 15.1H6.16688C6.1695 15.1 6.17081 15.0987 6.17343 15.0987C6.17605 15.0987 6.17736 15.1 6.17998 15.1H8.54336C8.85123 15.1 9.10168 15.3505 9.10168 15.6583V17.4673H13.9927V13.2755H8.29397C7.01052 13.2742 5.87972 14.0007 5.32422 15.1L5.32429 15.1Z" fill="#0057B8"/>
<path d="M5.61528 16.2162H0.456837L0.329102 19.8277H5.61527L5.61528 16.2162Z" fill="#0057B8"/>
<path d="M7.49993 1.73006L7.28485 0.288757C6.79183 0.419109 6.29749 0.583524 5.854 0.737459L6.07169 1.99469L7.49993 1.73006Z" fill="#0057B8"/>
<path d="M23.5068 27.0664H29.0264L28.8987 23.455H23.5068L23.5068 27.0664Z" fill="#0057B8"/>
<path d="M5.61546 23.4549H0.200001L0.0722656 27.0663H5.61545L5.61546 23.4549Z" fill="#0057B8"/>
<path d="M3.87423 20.9457H0.290288L0.240723 22.3386H3.87425L3.87423 20.9457Z" fill="#0057B8"/>
<path d="M9.09981 27.6248C9.09981 27.9327 8.84937 28.1832 8.5415 28.1832H6.19931C6.19013 28.1832 6.18227 28.1884 6.17201 28.1884C6.16284 28.1884 6.15498 28.1832 6.14472 28.1832H4.98877V30.8164C7.25567 30.6598 10.5254 30.4826 13.991 30.4487V25.8239L9.09999 25.8213L9.09981 27.6248Z" fill="#0057B8"/>
<path d="M0.00137399 29.0569C-0.0182771 29.5903 0.173431 30.0938 0.540036 30.4733C0.901398 30.8476 1.38788 31.055 1.91342 31.0615C2.05819 31.0471 2.77021 30.982 3.87373 30.8971V28.1841L0.0327712 28.1844L0.00137399 29.0569Z" fill="#0057B8"/>
<path d="M20.0223 22.897C20.0223 22.5892 20.2728 22.3387 20.5806 22.3387H22.9362C22.9414 22.3387 22.9454 22.3361 22.9493 22.3361C22.9545 22.3361 22.9585 22.3387 22.9624 22.3387H24.195V20.9457H22.9768C22.9676 20.9457 22.9598 20.9509 22.9495 20.9509C22.9404 20.9509 22.9325 20.9457 22.9222 20.9457H20.5798C20.2719 20.9457 20.0215 20.6952 20.0215 20.3874V18.5836H15.1069V24.7071L20.0215 24.7097L20.0211 22.8969L20.0223 22.897Z" fill="#0057B8"/>
<path d="M22.9486 28.1883C22.9394 28.1883 22.9315 28.183 22.9213 28.183H20.5788C20.271 28.183 20.0205 27.9326 20.0205 27.6247V25.8262L15.106 25.8235V30.4471C18.617 30.4809 21.9231 30.6624 24.1942 30.82V28.1815H22.9761C22.9658 28.183 22.958 28.1883 22.9488 28.1883L22.9486 28.1883Z" fill="#0057B8"/>
<path d="M21.1377 23.4549H22.391V27.0651H21.1377V23.4549Z" fill="#0057B8"/>
<path d="M25.3096 22.3386H28.8584L28.8088 20.9458H25.3096L25.3096 22.3386Z" fill="#0057B8"/>
<path d="M25.3096 28.1832V30.9025C26.3659 30.9833 27.0443 31.0459 27.1852 31.0604C27.7108 31.0538 28.1972 30.8464 28.5586 30.4721C28.9252 30.0927 29.1156 29.5905 29.0972 29.0557L29.066 28.1819H25.3096L25.3096 28.1832Z" fill="#0057B8"/>
<path d="M22.9392 0.6331C22.4787 0.476544 21.9806 0.319988 21.5018 0.20929L21.2749 1.73008L22.7031 1.99362L22.9392 0.6331Z" fill="#0057B8"/>
<path d="M23.5068 19.8278H28.7694L28.6417 16.2163H23.5068L23.5068 19.8278Z" fill="#0057B8"/>
<path d="M20.0218 15.6584C20.0218 15.3505 20.2722 15.1001 20.5801 15.1001H22.9422C22.9448 15.1001 22.9461 15.0988 22.9487 15.0988C22.9514 15.0988 22.9527 15.1001 22.9553 15.1001H23.7743C23.216 14.0005 22.0801 13.2753 20.7901 13.2753H15.106V17.4672H20.0205L20.0203 15.6584L20.0218 15.6584Z" fill="#0057B8"/>
<path d="M24.9819 15.1H28.6025L28.5726 14.2574C28.5543 13.7436 28.1032 13.2205 27.4796 12.4954C26.7557 11.6554 25.8557 10.6108 25.0587 8.97257C24.7705 8.38039 24.8631 7.38386 25.0364 5.80852C25.2386 3.9746 25.5151 1.46276 24.4886 1.15879C24.3283 1.11054 24.1262 1.03761 23.9397 0.973633L23.7128 2.27911C23.6659 2.53217 23.5264 2.74724 23.3189 2.88961C23.1597 2.99922 22.9759 3.05534 22.7868 3.05534C22.7294 3.05534 22.672 3.0501 22.6134 3.03961L20.9857 2.7383C20.7378 2.69266 20.5239 2.55314 20.3804 2.34571C20.2383 2.13828 20.1848 1.88784 20.2304 1.6413L20.4664 0.0617618C20.1625 0.0578315 19.9005 0.102156 19.7112 0.220939C19.5847 0.299106 19.4112 0.455662 19.359 0.900422C18.8699 5.08699 18.5059 5.93483 15.1045 6.00929L15.1047 12.158H20.7889C22.6981 12.158 24.3547 13.3512 24.982 15.1002L24.9819 15.1Z" fill="#0057B8"/>
<path d="M21.1377 16.2162H22.391V19.8277H21.1377V16.2162Z" fill="#0057B8"/>
</svg>
