<svg width="32" height="26" viewBox="0 0 32 26" fill="none" xmlns="http://www.w3.org/2000/svg">
<g clip-path="url(#clip0_357_6600)">
<path d="M5.81666 25.3208V23.6735C5.81666 23.0419 5.43241 22.6302 4.77379 22.6302C4.44454 22.6302 4.08779 22.74 3.84079 23.0969C3.64879 22.7949 3.37441 22.6302 2.96279 22.6302C2.68829 22.6302 2.41404 22.7124 2.19441 23.0145V22.6851H1.61816V25.3208H2.19441V23.8656C2.19441 23.399 2.44141 23.1792 2.82566 23.1792C3.20966 23.1792 3.40191 23.4263 3.40191 23.8656V25.3208H3.97816V23.8656C3.97816 23.399 4.25241 23.1792 4.60916 23.1792C4.99341 23.1792 5.18541 23.4263 5.18541 23.8656V25.3208H5.81666V25.3208ZM14.3505 22.6851H13.4177V21.8889H12.8414V22.6851H12.32V23.2066H12.8413V24.4148C12.8413 25.0189 13.0883 25.3757 13.7469 25.3757C13.9939 25.3757 14.2682 25.2934 14.4604 25.1836L14.2957 24.6893C14.131 24.7991 13.939 24.8266 13.8018 24.8266C13.5274 24.8266 13.4177 24.6619 13.4177 24.3873V23.2066H14.3505V22.6851V22.6851ZM19.235 22.63C18.9058 22.63 18.6863 22.7949 18.549 23.0145V22.6851H17.9728V25.3208H18.549V23.8382C18.549 23.399 18.741 23.1518 19.0978 23.1518C19.2075 23.1518 19.3448 23.1793 19.4545 23.2067L19.6192 22.6577C19.5094 22.6302 19.3448 22.6302 19.235 22.6302V22.63ZM11.8535 22.9047C11.579 22.7124 11.1949 22.6302 10.7833 22.6302C10.1248 22.6302 9.68579 22.9596 9.68579 23.4812C9.68579 23.9206 10.015 24.1676 10.5913 24.2501L10.8657 24.2776C11.1675 24.3323 11.3322 24.4148 11.3322 24.5521C11.3322 24.7442 11.1127 24.8815 10.7284 24.8815C10.3443 24.8815 10.0424 24.7442 9.85029 24.607L9.57591 25.0462C9.87779 25.2659 10.2894 25.3757 10.7009 25.3757C11.4693 25.3757 11.9084 25.0189 11.9084 24.5246C11.9084 24.0578 11.5517 23.8107 11.0028 23.7284L10.7284 23.7009C10.4814 23.6734 10.2894 23.6186 10.2894 23.4539C10.2894 23.2616 10.4814 23.1518 10.7833 23.1518C11.1127 23.1518 11.4419 23.289 11.6065 23.3714L11.8535 22.9047V22.9047ZM27.1654 22.6302C26.836 22.6302 26.6165 22.7949 26.4793 23.0145V22.6851H25.903V25.3208H26.4793V23.8382C26.4793 23.399 26.6714 23.1518 27.028 23.1518C27.1379 23.1518 27.2752 23.1793 27.3849 23.2067L27.5495 22.6577C27.4398 22.6302 27.2752 22.6302 27.1654 22.6302V22.6302ZM19.8113 24.0029C19.8113 24.7991 20.36 25.3757 21.2108 25.3757C21.5949 25.3757 21.8693 25.2934 22.1437 25.0738L21.8693 24.607C21.6498 24.7717 21.4303 24.854 21.1833 24.854C20.7168 24.854 20.3875 24.5246 20.3875 24.0029C20.3875 23.5088 20.7168 23.1792 21.1833 23.1518C21.4303 23.1518 21.6498 23.2341 21.8693 23.399L22.1437 22.9322C21.8693 22.7124 21.5949 22.6302 21.2108 22.6302C20.36 22.6302 19.8113 23.2067 19.8113 24.0029ZM25.1348 24.0029V22.6851H24.5585V23.0145C24.3664 22.7675 24.092 22.6302 23.7353 22.6302C22.9944 22.6302 22.4182 23.2067 22.4182 24.0029C22.4182 24.7991 22.9944 25.3757 23.7353 25.3757C24.1194 25.3757 24.3939 25.2385 24.5585 24.9913V25.3208H25.1348V24.0029V24.0029ZM23.0218 24.0029C23.0218 23.5362 23.3237 23.1518 23.8175 23.1518C24.284 23.1518 24.6134 23.5088 24.6134 24.0029C24.6134 24.4697 24.284 24.854 23.8175 24.854C23.3237 24.8265 23.0218 24.4697 23.0218 24.0029V24.0029ZM16.1343 22.6302C15.3659 22.6302 14.817 23.1792 14.817 24.0029C14.817 24.8266 15.3658 25.3757 16.1617 25.3757C16.5458 25.3757 16.93 25.2659 17.2319 25.0189L16.9574 24.607C16.7379 24.7717 16.4635 24.8815 16.1892 24.8815C15.8324 24.8815 15.4757 24.7168 15.3933 24.2499H17.3417V24.0304C17.3692 23.1792 16.8752 22.6302 16.1342 22.6302H16.1343ZM16.1343 23.1243C16.4909 23.1243 16.738 23.344 16.7928 23.7559H15.4208C15.4757 23.399 15.7227 23.1243 16.1343 23.1243ZM30.4308 24.0029V21.6417H29.8545V23.0145C29.6624 22.7675 29.388 22.6302 29.0313 22.6302C28.2904 22.6302 27.7142 23.2067 27.7142 24.0029C27.7142 24.7991 28.2904 25.3757 29.0313 25.3757C29.4155 25.3757 29.6899 25.2385 29.8545 24.9913V25.3208H30.4308V24.0029V24.0029ZM28.3179 24.0029C28.3179 23.5362 28.6197 23.1518 29.1137 23.1518C29.5802 23.1518 29.9094 23.5088 29.9094 24.0029C29.9094 24.4697 29.5802 24.854 29.1137 24.854C28.6197 24.8265 28.3179 24.4697 28.3179 24.0029V24.0029ZM9.05454 24.0029V22.6851H8.47829V23.0145C8.28616 22.7675 8.01179 22.6302 7.65504 22.6302C6.91416 22.6302 6.33791 23.2067 6.33791 24.0029C6.33791 24.7991 6.91416 25.3757 7.65504 25.3757C8.03929 25.3757 8.31366 25.2385 8.47829 24.9913V25.3208H9.05454V24.0029V24.0029ZM6.91416 24.0029C6.91416 23.5362 7.21604 23.1518 7.70991 23.1518C8.17642 23.1518 8.50579 23.5088 8.50579 24.0029C8.50579 24.4697 8.17642 24.854 7.70991 24.854C7.21604 24.8265 6.91416 24.4697 6.91416 24.0029V24.0029Z" fill="black"/>
<path d="M11.6631 2.66968H20.3068V18.2097H11.6631V2.66968Z" fill="#FF5F00"/>
<path d="M12.2111 10.4397C12.2111 7.2823 13.6929 4.48173 15.9704 2.6696C14.2966 1.35174 12.1838 0.555542 9.87875 0.555542C4.41788 0.555542 0 4.97588 0 10.4397C0 15.9034 4.41788 20.3238 9.87863 20.3238C12.1836 20.3238 14.2965 19.5276 15.9704 18.2096C13.6929 16.425 12.2111 13.5971 12.2111 10.4397V10.4397Z" fill="#EB001B"/>
<path d="M31.9674 10.4397C31.9674 15.9034 27.5496 20.3238 22.0888 20.3238C19.7838 20.3238 17.6709 19.5276 15.9971 18.2096C18.3021 16.3976 19.7564 13.5971 19.7564 10.4397C19.7564 7.2823 18.2746 4.48173 15.9971 2.6696C17.6708 1.35174 19.7838 0.555542 22.0888 0.555542C27.5496 0.555542 31.9676 5.0034 31.9676 10.4397H31.9674Z" fill="#F79E1B"/>
</g>
<defs>
<clipPath id="clip0_357_6600">
<rect width="32" height="24.8889" fill="white" transform="translate(0 0.555542)"/>
</clipPath>
</defs>
</svg>
