<svg width="206" height="206" viewBox="0 0 206 206" fill="none" xmlns="http://www.w3.org/2000/svg">
<g clip-path="url(#clip0_1_5)">
<path d="M121.572 103.362H139.265V66.5284H121.572V103.362ZM121.572 103.362H139.265V66.5284H121.572V103.362ZM137.299 0H0V137.299C0 175.167 30.7293 206 68.7012 206H206V68.7012C206 30.7293 175.271 0 137.299 0ZM80.4962 150.956H66.1145L47.5942 54.1125H62.0794L72.8398 120.33C72.9432 122.193 73.0467 124.986 73.2536 128.608C73.2536 126.745 73.3571 123.952 73.6675 120.33L84.5314 54.1125H99.0166L80.4962 150.956ZM153.853 106.776C153.853 112.777 150.956 115.778 145.059 115.778H121.676V150.749H107.19V54.1125H145.059C150.956 54.1125 153.853 57.113 153.853 63.0105V106.776ZM121.572 103.362H139.265V66.5284H121.572V103.362Z" fill="white"/>
</g>
<defs>
<clipPath id="clip0_1_5">
<rect width="206" height="206" fill="white"/>
</clipPath>
</defs>
</svg>
