<svg width="32" height="32" viewBox="0 0 32 32" fill="none" xmlns="http://www.w3.org/2000/svg">
<path fill-rule="evenodd" clip-rule="evenodd" d="M27.9997 9.33333C27.9997 10.7478 27.4378 12.1044 26.4376 13.1046C25.4374 14.1048 24.0808 14.6667 22.6663 14.6667C21.2519 14.6667 19.8953 14.1048 18.8951 13.1046C17.8949 12.1044 17.333 10.7478 17.333 9.33333C17.333 7.91885 17.8949 6.56229 18.8951 5.5621C19.8953 4.5619 21.2519 4 22.6663 4C24.0808 4 25.4374 4.5619 26.4376 5.5621C27.4378 6.56229 27.9997 7.91885 27.9997 9.33333ZM25.521 9.99C25.4813 10.1622 25.3749 10.3115 25.2251 10.4053C25.0754 10.499 24.8945 10.5295 24.7223 10.49L20.3117 9.47667C20.1393 9.43706 19.9897 9.3306 19.8958 9.18069C19.8019 9.03079 19.7714 8.84972 19.811 8.67733C19.8506 8.50494 19.9571 8.35535 20.107 8.26145C20.2569 8.16756 20.438 8.13706 20.6103 8.17667L25.021 9.19067C25.1063 9.21032 25.1869 9.24658 25.2582 9.29739C25.3295 9.3482 25.3901 9.41255 25.4366 9.48678C25.483 9.561 25.5143 9.64365 25.5288 9.72999C25.5433 9.81633 25.5407 9.90468 25.521 9.99Z" fill="#212529"/>
<path d="M11.185 6.16333C10.7537 5.142 9.30971 5.03933 8.73038 5.988L4.19438 13.41C3.67104 14.266 4.25571 15.3593 5.27638 15.432L13.187 15.996C14.207 16.0693 14.9497 15.0707 14.5604 14.1493L11.185 6.16333Z" fill="#212529"/>
<path fill-rule="evenodd" clip-rule="evenodd" d="M23.5895 24.24C24.5511 23.7917 25.2952 22.9798 25.6581 21.9828C26.0211 20.9859 25.9731 19.8856 25.5248 18.924C25.3028 18.4479 24.9892 18.0201 24.602 17.6652C24.2147 17.3102 23.7613 17.0351 23.2676 16.8554C22.2707 16.4924 21.1704 16.5404 20.2088 16.9887L12.9581 20.37C12.4821 20.592 12.0544 20.9056 11.6995 21.2928C11.3446 21.6801 11.0694 22.1335 10.8897 22.6271C10.71 23.1207 10.6293 23.6449 10.6522 24.1696C10.6751 24.6944 10.8012 25.2096 11.0231 25.6857C11.2451 26.1618 11.5587 26.5895 11.946 26.9444C12.3332 27.2993 12.7866 27.5744 13.2802 27.7541C13.7738 27.9338 14.298 28.0145 14.8228 27.9916C15.3476 27.9687 15.8627 27.8426 16.3388 27.6207L23.5895 24.2393V24.24ZM19.9615 24.46L23.0261 23.0313C23.66 22.728 24.1485 22.1868 24.3855 21.5254C24.6225 20.8639 24.5888 20.1356 24.2919 19.4988C23.9949 18.862 23.4586 18.3682 22.7995 18.1246C22.1404 17.881 21.4119 17.9074 20.7721 18.198L17.7075 19.6267L19.9608 24.46H19.9615Z" fill="#212529"/>
</svg>
