<svg width="30" height="30" viewBox="0 0 30 30" fill="none" xmlns="http://www.w3.org/2000/svg">
<path d="M26.9995 18.2761C25.1596 19.6376 21.1731 19.8321 18.6432 19.4821C18.1831 20.1045 17.5699 20.6491 16.8799 21.0381C20.943 22.3218 26.9994 21.1937 26.9994 19.7155L26.9995 18.2761Z" fill="#0057B8"/>
<path d="M19.0262 16.4859C19.3329 13.8407 16.9564 11.1956 14.2348 11.1956C11.5898 11.1956 9.44336 13.374 9.44336 16.0581C9.44336 18.7422 11.59 20.9206 14.2348 20.9206C16.7264 20.9595 18.7963 19.0144 19.0262 16.4859ZM14.5414 19.1701H14.0813V18.6254C13.3913 18.5477 12.8164 18.2753 12.2797 17.8086L12.8164 17.1472C13.238 17.4974 13.6597 17.7307 14.0813 17.8086V16.3693C13.1231 16.1359 12.4714 15.8246 12.4714 14.8522C12.4714 13.9574 13.1613 13.374 14.0813 13.3351V12.9461H14.5414V13.3351C15.0781 13.374 15.5764 13.5685 16.0746 13.8797L15.5763 14.5799C15.2696 14.3466 14.8863 14.191 14.5413 14.1521V15.5526H14.5796C15.5378 15.7859 16.2278 16.0972 16.2278 17.1086C16.2278 18.0421 15.4995 18.5868 14.5796 18.6256L14.5797 19.1701H14.5414Z" fill="#0057B8"/>
<path d="M26.9995 25.1618V23.7224C24.5462 25.5507 17.455 25.5507 15.002 23.7224V25.1618C15.0018 27.6124 26.9995 27.6124 26.9995 25.1618Z" fill="#0057B8"/>
<path d="M14.541 16.4858V17.8475C14.771 17.8086 14.9626 17.7697 15.116 17.653C15.2694 17.5362 15.3076 17.3808 15.3076 17.2251C15.3076 17.0695 15.2693 16.9139 15.1543 16.7973C15.0392 16.6803 14.8093 16.6026 14.541 16.4858L14.541 16.4858Z" fill="#0057B8"/>
<path d="M27.0003 15.5923C25.3521 16.8371 21.9405 17.0705 19.7558 16.9149C19.6792 17.5763 19.4491 18.1986 19.1426 18.7821C23.014 19.249 27.0006 18.1598 27.0006 17.0317L27.0003 15.5923Z" fill="#0057B8"/>
<path d="M4.53711 8.08428H8.02542V4.58325L4.53711 8.08428Z" fill="#0057B8"/>
<path d="M4 26.6789H15.3845C14.6562 26.2899 14.2346 25.7453 14.2346 25.1618V21.7385C11.1681 21.7385 8.67655 19.2099 8.67655 16.0979C8.67655 12.9858 11.1681 10.4573 14.2346 10.4573C15.6146 10.4573 16.9179 10.9631 17.9529 11.8967C17.9912 11.8967 17.9912 11.9356 17.9912 11.9356C18.796 11.7799 19.7162 11.7022 20.6361 11.6633L20.636 4H8.79155V8.47349C8.79155 8.70684 8.6382 8.86247 8.40826 8.86247L4.00002 8.86265L4 26.6789ZM13.928 8.86222H13.1614V8.08424H13.928V8.86222ZM16.2279 8.86222H15.4613V8.08424H16.2279V8.86222ZM18.5279 8.86222H17.7613V8.08424H18.5279V8.86222ZM11.245 5.67227H18.1448C18.3747 5.67227 18.5281 5.82789 18.5281 6.06125C18.5281 6.29461 18.3747 6.45024 18.1448 6.45024H11.245C11.015 6.45024 10.8617 6.29461 10.8617 6.06125C10.8617 5.82789 11.0533 5.67227 11.245 5.67227ZM10.8617 8.08405H11.6283V8.86203H10.8617V8.08405ZM5.57195 11.5853H7.10515C7.33509 11.5853 7.48845 11.7409 7.48845 11.9742C7.48845 12.2076 7.33509 12.3632 7.10515 12.3632H5.57195C5.34201 12.3632 5.18865 12.2076 5.18865 11.9742C5.18865 11.7407 5.342 11.5853 5.57195 11.5853ZM5.57195 14.1136H7.10515C7.33509 14.1136 7.48845 14.2693 7.48845 14.5026C7.48845 14.736 7.33509 14.8916 7.10515 14.8916H5.57195C5.34201 14.8916 5.18865 14.736 5.18865 14.5026C5.18865 14.3081 5.342 14.1136 5.57195 14.1136ZM5.57195 16.6811H7.10515C7.33509 16.6811 7.48845 16.8367 7.48845 17.0701C7.48845 17.3034 7.33509 17.459 7.10515 17.459H5.57195C5.34201 17.459 5.18865 17.3034 5.18865 17.0701C5.18865 16.8367 5.342 16.6811 5.57195 16.6811ZM5.57195 19.2096H7.10515C7.33509 19.2096 7.48845 19.3653 7.48845 19.5986C7.48845 19.832 7.33509 19.9876 7.10515 19.9876H5.57195C5.34201 19.9876 5.18865 19.832 5.18865 19.5986C5.18865 19.3653 5.342 19.2096 5.57195 19.2096ZM5.57195 21.7771H7.10515C7.33509 21.7771 7.48845 21.9327 7.48845 22.1661C7.48845 22.3994 7.33509 22.555 7.10515 22.555H5.57195C5.34201 22.555 5.18865 22.3994 5.18865 22.1661C5.18865 21.9327 5.342 21.7771 5.57195 21.7771ZM5.57195 24.3056H10.9385C11.1684 24.3056 11.3218 24.4613 11.3218 24.6946C11.3218 24.928 11.1684 25.0836 10.9385 25.0836H5.57195C5.34201 25.0836 5.18865 24.928 5.18865 24.6946C5.18865 24.5001 5.342 24.3056 5.57195 24.3056Z" fill="#0057B8"/>
<path d="M18.6055 12.5966C19.4103 13.608 19.8321 14.8918 19.7938 16.1365C23.5504 16.4087 27.0004 15.3585 27.0004 14.3081C27.0004 13.5302 24.7388 12.4409 21.0208 12.4409C20.1775 12.4409 19.3724 12.4798 18.6058 12.5965L18.6055 12.5966Z" fill="#0057B8"/>
<path d="M13.3525 14.7753C13.3525 14.931 13.3908 15.0866 13.5059 15.1643C13.621 15.2811 13.7741 15.3588 14.0809 15.4366V14.1528C13.8509 14.1917 13.6976 14.2306 13.5442 14.3473C13.4293 14.4641 13.3526 14.6197 13.3526 14.7753H13.3525Z" fill="#0057B8"/>
<path d="M26.9999 22.4389V20.9995C24.8533 22.5945 18.9503 22.8667 15.8453 21.5053C15.5386 21.583 15.4237 21.622 15.002 21.6997V22.4388C15.002 24.8895 27 24.8895 27 22.4388L26.9999 22.4389Z" fill="#0057B8"/>
</svg>
