<svg width="30" height="30" viewBox="0 0 30 30" fill="none" xmlns="http://www.w3.org/2000/svg">
<path d="M11.9254 9.62042C12.5788 9.62042 13.2056 9.36096 13.6676 8.89912C14.1297 8.43727 14.3893 7.81097 14.3893 7.15781C14.3893 6.50451 14.1297 5.87819 13.6676 5.41632C13.2056 4.95447 12.579 4.69482 11.9254 4.69482C11.2719 4.69482 10.6453 4.95429 10.1831 5.41613C9.721 5.87798 9.46143 6.50447 9.46143 7.15762C9.46216 7.81055 9.7221 8.4365 10.184 8.89837C10.6459 9.36004 11.2721 9.61968 11.9254 9.62042ZM11.9254 5.73816C12.3019 5.73816 12.6631 5.88786 12.9294 6.15388C13.1957 6.42009 13.3453 6.78113 13.3453 7.15745C13.3453 7.53397 13.1957 7.895 12.9294 8.1612C12.6631 8.42723 12.3018 8.57674 11.9254 8.57674C11.5489 8.57674 11.1877 8.42723 10.9213 8.1612C10.655 7.89499 10.5054 7.53395 10.5054 7.15745C10.506 6.78129 10.6557 6.42064 10.9219 6.15444C11.188 5.88842 11.5489 5.73872 11.9253 5.73817L11.9254 5.73816Z" fill="#0057B8"/>
<path d="M24.5573 9.02884L21.1182 5.51416V8.50428C21.1182 8.79419 21.3787 9.02884 21.6689 9.02884H24.5573Z" fill="#0057B8"/>
<path d="M11.9243 7.96391C12.1382 7.96391 12.3435 7.87894 12.4947 7.72778C12.646 7.57645 12.731 7.37132 12.731 7.15724C12.731 6.94337 12.646 6.73824 12.4947 6.58689C12.3435 6.43574 12.1382 6.35059 11.9243 6.35059C11.7104 6.35059 11.5051 6.43574 11.354 6.58689C11.2026 6.73823 11.1177 6.94335 11.1177 7.15724C11.118 7.37112 11.203 7.57625 11.3543 7.72741C11.5055 7.87857 11.7104 7.96372 11.9243 7.9639L11.9243 7.96391Z" fill="#0057B8"/>
<path d="M7.94378 6.82201L7.76628 6.95475C7.70262 7.00252 7.66504 7.07728 7.66504 7.15659C7.66504 7.23609 7.70225 7.31085 7.76592 7.35862L7.94505 7.493H7.94487C8.10923 7.61571 8.22433 7.79276 8.26993 7.99259C8.31536 8.19242 8.28818 8.40193 8.19314 8.58353L8.09153 8.77899C8.05486 8.84955 8.05359 8.93342 8.08825 9.00508C8.12291 9.07674 8.18931 9.12779 8.26738 9.14311L8.48135 9.18468C8.68347 9.22334 8.86498 9.33274 8.99322 9.49337C9.12164 9.65419 9.18823 9.85531 9.18111 10.0608L9.17418 10.2809C9.17181 10.3605 9.20701 10.4366 9.26922 10.4862C9.3316 10.5358 9.41351 10.5531 9.49067 10.5328L9.70319 10.4772H9.70301C9.77543 10.4583 9.84985 10.4486 9.92465 10.4486C10.0919 10.4486 10.2554 10.4973 10.3955 10.5886C10.5354 10.68 10.6457 10.81 10.7132 10.9628L10.803 11.165C10.8353 11.2377 10.9 11.291 10.9777 11.3087C11.0553 11.3264 11.1366 11.3063 11.1974 11.2547L11.3647 11.1123V11.1125C11.5208 10.9787 11.7198 10.9052 11.9256 10.9052C12.1312 10.9052 12.3302 10.9787 12.4864 11.1125L12.6536 11.2549V11.2547C12.7144 11.3063 12.7957 11.3264 12.8734 11.3087C12.951 11.291 13.0157 11.2377 13.048 11.165L13.1378 10.9628C13.2208 10.775 13.368 10.6227 13.5531 10.5338C13.7385 10.4446 13.9493 10.4247 14.148 10.4772L14.3605 10.5328C14.4375 10.5531 14.5196 10.5358 14.5818 10.4862C14.6442 10.4364 14.6792 10.3604 14.6768 10.2809L14.6699 10.0608C14.6628 9.8553 14.7294 9.65418 14.8578 9.49338C14.986 9.33274 15.1675 9.22334 15.3696 9.18468L15.5836 9.14311C15.6619 9.12779 15.7283 9.07674 15.7627 9.00508C15.7974 8.93343 15.7963 8.84956 15.7595 8.77899L15.6579 8.58334C15.5628 8.40192 15.5356 8.19242 15.5811 7.99259C15.6267 7.79276 15.7418 7.61571 15.9061 7.493L16.0849 7.35862C16.1484 7.31104 16.1858 7.23628 16.1858 7.15678C16.1858 7.07728 16.1484 7.00253 16.0849 6.95494L15.9072 6.8222C15.7427 6.69967 15.627 6.52244 15.5812 6.32242C15.5356 6.1224 15.5628 5.91272 15.6579 5.73092L15.7593 5.53582C15.7959 5.46526 15.7972 5.38139 15.7626 5.30991C15.7279 5.23825 15.6617 5.18702 15.5834 5.17189L15.3695 5.13032V5.13013C15.1673 5.09166 14.9858 4.98208 14.8576 4.82144C14.7292 4.66081 14.6626 4.45951 14.6697 4.25403L14.6766 4.03395C14.679 3.95446 14.6438 3.87842 14.5816 3.82883C14.5194 3.77923 14.4373 3.76191 14.3603 3.78197L14.1478 3.83758C13.9491 3.89028 13.7381 3.87022 13.5529 3.78124C13.3678 3.69227 13.2204 3.54001 13.1376 3.35203L13.0478 3.14982C13.0155 3.07707 12.9508 3.02401 12.8731 3.00632C12.7955 2.98864 12.714 3.00851 12.6534 3.06011L12.4862 3.20233C12.33 3.33617 12.131 3.40983 11.9252 3.40983C11.7196 3.40983 11.5206 3.33617 11.3645 3.20233L11.1972 3.06011C11.1364 3.00851 11.0551 2.98864 10.9776 3.00632C10.8998 3.02401 10.8351 3.07707 10.8028 3.14982L10.7131 3.35203C10.6302 3.54001 10.4828 3.69227 10.2977 3.78124C10.1123 3.87041 9.90147 3.89028 9.70284 3.83758L9.49032 3.78197H9.4905C9.41334 3.76191 9.33125 3.77923 9.26905 3.82883C9.20666 3.87842 9.17145 3.95446 9.174 4.03414L9.18094 4.25421V4.25403C9.18805 4.45952 9.12147 4.66081 8.99305 4.82144C8.86481 4.98208 8.68312 5.09166 8.48118 5.13013L8.26721 5.17171V5.17189C8.18895 5.18702 8.12255 5.23826 8.08807 5.30991C8.05341 5.38157 8.05451 5.46526 8.09136 5.53582L8.19278 5.73074C8.28782 5.91253 8.315 6.12239 8.2694 6.32242C8.22379 6.52245 8.10832 6.69949 7.94378 6.82201L7.94378 6.82201ZM11.9254 4.08208C12.7414 4.08208 13.5241 4.40609 14.1011 4.98282C14.6781 5.55971 15.0023 6.34193 15.0023 7.15753C15.0023 7.97331 14.6781 8.75549 14.1011 9.33223C13.5242 9.90893 12.7416 10.233 11.9254 10.233C11.1094 10.233 10.3269 9.90896 9.7499 9.33223C9.17275 8.75553 8.84857 7.97331 8.84857 7.15753C8.84948 6.3423 9.174 5.56045 9.75079 4.98394C10.3276 4.40738 11.1096 4.08302 11.9254 4.08213L11.9254 4.08208Z" fill="#0057B8"/>
<path d="M9.98395 22.1919V16.0052L9.41263 16.3637C9.32306 16.4215 9.20833 16.4239 9.11638 16.3697C9.02025 16.3152 8.96133 16.2129 8.96242 16.1024V11.0159C8.91134 11.0006 8.91208 10.984 8.88927 10.966C8.6742 10.7971 8.55235 10.536 8.56092 10.2629L8.56786 10.0434C8.57205 9.91978 8.48522 9.81165 8.36355 9.78886L8.14957 9.74966C7.88178 9.70061 7.65359 9.52648 7.53558 9.28144C7.44163 9.09217 7.42339 8.87428 7.4845 8.67188H7.25046C6.5744 8.67188 6 9.20283 6 9.87821V25.7794C6 26.4551 6.57444 26.9999 7.25046 26.9999H19.1531C19.8291 26.9999 20.4035 26.4551 20.4035 25.7794V24.0388H11.8474C10.8335 24.0388 9.98398 23.2054 9.98398 22.192L9.98395 22.1919Z" fill="#0057B8"/>
<path d="M20.5055 8.50447V5.04688H16.3234C16.4334 5.29084 16.4256 5.57162 16.3025 5.80921L16.201 6.01343C16.1437 6.12301 16.1746 6.25794 16.2736 6.3316L16.4513 6.46434C16.6693 6.62771 16.7977 6.88389 16.7979 7.15629C16.7981 7.42851 16.67 7.68486 16.4522 7.84842L16.2734 7.9828C16.1744 8.05665 16.1438 8.1914 16.201 8.30098L16.3026 8.49662V8.49644C16.4283 8.73858 16.4325 9.02576 16.3139 9.27138C16.1952 9.51698 15.9677 9.6922 15.6999 9.74436L15.4858 9.78593L15.4856 9.78612C15.3639 9.80927 15.2773 9.91758 15.2813 10.0414L15.2875 10.2615C15.2968 10.5346 15.1753 10.7957 14.9606 10.9649C14.9378 10.9829 14.9385 10.9995 14.8875 11.0152L14.8876 11.9902H18.6163C18.7854 11.9902 18.9227 12.1273 18.9227 12.2965C18.9227 12.4657 18.7854 12.6028 18.6163 12.6028H14.8871V14.8492H22.4617C22.631 14.8492 22.7682 14.9863 22.7682 15.1555C22.7682 15.3247 22.631 15.4618 22.4617 15.4618H14.8871V16.1024C14.8877 16.213 14.828 16.3153 14.7315 16.3697C14.6863 16.3952 14.635 16.4087 14.583 16.4087C14.5256 16.4087 14.4692 16.3932 14.4198 16.3637L11.9125 14.8308L10.5967 15.6296V22.1919C10.5967 22.8677 11.1711 23.4261 11.8471 23.4261H23.7498C24.4258 23.4261 25.0002 22.8677 25.0002 22.1919V9.64176H21.6691C21.041 9.64176 20.5054 9.13232 20.5054 8.50456L20.5055 8.50447ZM22.4618 18.5252H12.8787C12.7096 18.5252 12.5723 18.3881 12.5723 18.2189C12.5723 18.0497 12.7096 17.9126 12.8787 17.9126H22.4618C22.6311 17.9126 22.7683 18.0497 22.7683 18.2189C22.7683 18.3881 22.6311 18.5252 22.4618 18.5252Z" fill="#0057B8"/>
<path d="M13.6977 11.2112L13.6078 11.4134C13.4971 11.6627 13.2752 11.8452 13.0091 11.9057C12.7431 11.9663 12.464 11.8977 12.2563 11.721L12.089 11.5788H12.0888C11.9947 11.498 11.8559 11.498 11.7617 11.5788L11.5945 11.721C11.4391 11.8543 11.2413 11.9276 11.0367 11.9278C10.971 11.9278 10.9055 11.9203 10.8416 11.9057C10.575 11.8463 10.3528 11.6634 10.243 11.4134L10.1536 11.2112C10.104 11.0978 9.97901 11.0376 9.85952 11.0695L9.64829 11.1252L9.64847 11.1253C9.62384 11.129 9.59958 11.1343 9.57568 11.1412V15.5548L11.7663 14.2099H11.7665C11.8634 14.1496 11.986 14.1496 12.0826 14.2099L14.2749 15.5548V11.1412C14.251 11.1343 14.2268 11.129 14.2023 11.1253L13.9925 11.0697V11.0695C13.8727 11.0376 13.7475 11.0978 13.6977 11.2112L13.6977 11.2112Z" fill="#0057B8"/>
</svg>
