<svg width="30" height="30" viewBox="0 0 30 30" fill="none" xmlns="http://www.w3.org/2000/svg">
<path d="M5.01285 20.0895L3.23688 20.4316C3.10463 20.4513 3.00535 20.5624 3 20.6959V25.7269C3.00588 25.8132 3.04955 25.8923 3.11942 25.9433C3.18911 25.9943 3.27788 26.0119 3.36182 25.9913L5.13779 25.6492C5.26987 25.6294 5.36932 25.5184 5.37449 25.3849V20.3538C5.36861 20.2676 5.32494 20.1884 5.25525 20.1375C5.18556 20.0865 5.0968 20.0688 5.01285 20.0895ZM4.18724 25.1078C4.05784 25.121 3.92897 25.0789 3.83237 24.9918C3.73576 24.9046 3.68069 24.7805 3.68069 24.6504C3.68069 24.5203 3.73576 24.3963 3.83237 24.3091C3.92897 24.2219 4.05784 24.1799 4.18724 24.1931C4.31664 24.1799 4.44568 24.2219 4.54228 24.3091C4.63871 24.3964 4.69379 24.5203 4.69379 24.6504C4.69379 24.7805 4.63871 24.9044 4.54228 24.9918C4.44568 25.0789 4.31664 25.121 4.18724 25.1078Z" fill="#0057B8"/>
<path d="M20.5021 20.7772C18.1698 22.4934 12.2031 20.654 16.1823 20.3032C20.0301 19.9641 19.7595 17.5247 17.7338 18.1443C15.9297 18.6961 14.7302 17.8265 11.5593 18.3116C9.4834 18.6292 8.6879 18.9078 7.49357 20.0662V20.0664C7.47753 20.0821 7.4581 20.0938 7.43689 20.1006C7.32781 20.1355 6.94975 20.2551 6.41147 20.4271C6.35443 20.443 6.31433 20.4938 6.31201 20.553V24.4255C6.31575 24.4706 6.34017 24.5114 6.37814 24.5362C6.4161 24.5608 6.46351 24.5665 6.50611 24.5514C7.88301 24.1461 8.81877 23.9169 8.92641 23.9518C14.5689 25.7823 16.2745 25.0376 17.2176 24.6977C18.4854 24.2409 20.5015 23.5222 21.5574 22.9818C22.7008 22.3965 23.8568 20.7683 25.4237 19.8069C27.0212 18.8268 25.247 17.2851 20.5017 20.7772L20.5021 20.7772Z" fill="#0057B8"/>
<path d="M16.5428 16.9103C16.5428 16.9103 23.8836 13.3957 24.3527 7.74439C24.5529 5.33281 22.8247 3.12355 20.4078 3.00537H20.4076C18.9266 2.93033 17.5171 3.64668 16.7049 4.88738C16.6691 4.94192 16.6081 4.97489 16.5429 4.97489C16.4774 4.97489 16.4167 4.94192 16.3808 4.88738C15.5686 3.64668 14.1591 2.93031 12.6781 3.00537C10.261 3.12318 8.53303 5.33263 8.73302 7.74439C9.20195 13.3955 16.5429 16.9103 16.5429 16.9103H16.5428ZM16.4454 10.9494C14.9332 10.6305 14.1666 9.98833 14.1666 9.04061C14.1666 8.11362 14.9856 7.33824 16.0704 7.16075L16.0702 6.15176H17.0154V7.16075C18.1 7.33809 18.9192 8.11362 18.9192 9.04061H17.974C17.974 8.51337 17.3184 8.06799 16.5429 8.06799C15.7674 8.06799 15.1118 8.5134 15.1118 9.04061C15.1118 9.47961 15.6261 9.8106 16.6404 10.0245C18.1526 10.3433 18.9192 10.9855 18.9192 11.9332C18.9192 12.8602 18.1002 13.6356 17.0154 13.8131V14.8221L16.0702 14.8219V13.8129C14.9856 13.6356 14.1664 12.86 14.1664 11.933H15.1116C15.1116 12.4603 15.7672 12.9057 16.5427 12.9057C17.3182 12.9057 17.9737 12.4602 17.9737 11.933C17.9739 11.4942 17.4595 11.1632 16.4452 10.9493L16.4454 10.9494Z" fill="#0057B8"/>
</svg>
