<svg width="32" height="19" viewBox="0 0 32 19" fill="none" xmlns="http://www.w3.org/2000/svg">
<path d="M12.799 18.5692H3.19902C1.43152 18.5692 -0.000976562 17.2239 -0.000976562 15.5692V3.56921C-0.000976562 1.91218 1.43152 0.569214 3.19902 0.569214H12.799V18.5692ZM3.19902 14.0692C3.19902 14.8989 3.91552 15.5692 4.79902 15.5692H7.99902C8.88402 15.5692 9.59902 14.8989 9.59902 14.0692V5.06921C9.59902 4.23953 8.88402 3.56921 7.99902 3.56921H4.79902C3.91552 3.56921 3.19902 4.23953 3.19902 5.06921V14.0692ZM14.399 0.569214H28.799C30.564 0.569214 31.999 1.91218 31.999 3.56921V15.5692C31.999 17.2239 30.564 18.5692 28.799 18.5692H14.399V0.569214Z" fill="#0057B8"/>
</svg>
