<svg width="32" height="32" viewBox="0 0 32 32" fill="none" xmlns="http://www.w3.org/2000/svg">
<path d="M13.9007 18.7935L17.625 16V7.875H9.49995V16.8125L5.09974 20.0935C3.09895 21.5946 2.36466 24.3804 3.61642 26.5457C4.54318 28.1494 6.21287 29 7.87901 29C8.89616 29 9.92296 28.6826 10.8 28.025L11.91 27.1927C10.3942 24.3804 11.2225 20.8024 13.9007 18.7935ZM17.625 4.625C17.625 4.06387 17.7809 3.54336 18.0322 3.08227C17.8992 3.04672 17.7697 3 17.625 3H11.125C10.2276 3 9.49995 3.7277 9.49995 4.625V6.25H17.625V4.625ZM27.375 3H20.875C19.9777 3 19.25 3.7277 19.25 4.625V6.25H29V4.625C29 3.7277 28.2723 3 27.375 3ZM19.25 16.8125L14.8762 20.0935C12.8754 21.5946 12.1411 24.3804 13.3928 26.5457C14.3196 28.1494 15.9629 29 17.629 29C18.6462 29 19.673 28.6826 20.55 28.025L26.4 23.6375C27.2073 23.0321 27.8625 22.247 28.3138 21.3444C28.7651 20.4418 29 19.4466 29 18.4375V7.875H19.25V16.8125Z" fill="#212529"/>
</svg>
