<svg width="22" height="16" viewBox="0 0 22 16" fill="none" xmlns="http://www.w3.org/2000/svg">
<path d="M0.911632 6.42771L21.031 0.0192544C21.3332 -0.0772709 21.6214 0.200243 21.5379 0.506801L18.0178 13.4187C17.9556 13.6467 17.7112 13.7716 17.4905 13.6877L10.3824 10.9924C10.103 10.8863 10.0337 10.5212 10.2553 10.3201L15.8313 5.25473C16.174 4.94355 15.8041 4.39434 15.3879 4.59737L6.0536 9.14907C5.95138 9.19897 5.83312 9.2027 5.72792 9.15965L0.881801 7.18113C0.535467 7.03947 0.555082 6.5412 0.911665 6.42783L0.911632 6.42771ZM12.0956 7.51946C12.2707 7.36707 12.0763 7.09239 11.8747 7.20738L7.42643 9.6429C7.02527 9.87185 6.83688 10.3496 6.97328 10.7918L8.34731 15.4297C8.41714 15.6646 8.71133 15.7405 8.88533 15.5684L11.6278 12.9658C11.7398 12.8548 11.7041 12.6651 11.5593 12.6033L8.71361 11.1813C8.5573 11.1031 8.52655 10.8932 8.65329 10.7733L12.0954 7.51943L12.0956 7.51946Z" fill="white"/>
</svg>
