<svg width="28" height="28" viewBox="0 0 28 28" fill="none" xmlns="http://www.w3.org/2000/svg">
<path fill-rule="evenodd" clip-rule="evenodd" d="M24.5 14C24.5 8.20101 19.799 3.5 14 3.5C8.20101 3.5 3.5 8.20101 3.5 14C3.5 19.799 8.20101 24.5 14 24.5C19.799 24.5 24.5 19.799 24.5 14ZM15.1667 19.8333C15.1667 19.189 14.6443 18.6667 14 18.6667C13.3557 18.6667 12.8333 19.189 12.8333 19.8333C12.8333 20.4777 13.3557 21 14 21C14.6443 21 15.1667 20.4777 15.1667 19.8333ZM15 15.1667C15 15.719 14.5523 16.1667 14 16.1667C13.4477 16.1667 13 15.719 13 15.1667V8.16667C13 7.61438 13.4477 7.16667 14 7.16667C14.5523 7.16667 15 7.61438 15 8.16667V15.1667Z" fill="#FA5252"/>
</svg>
