<svg width="28" height="28" viewBox="0 0 28 28" fill="none" xmlns="http://www.w3.org/2000/svg">
<path fill-rule="evenodd" clip-rule="evenodd" d="M14 24.5C19.799 24.5 24.5 19.799 24.5 14C24.5 11.7995 23.8231 9.75702 22.6661 8.06957L14.1884 17.4893C13.4957 18.2589 12.3301 18.3726 11.5018 17.7513L7.56667 14.8C7.12484 14.4686 7.0353 13.8418 7.36667 13.4C7.69804 12.9582 8.32484 12.8686 8.76667 13.2L12.7018 16.1513L21.3694 6.5206C19.4738 4.65269 16.8715 3.5 14 3.5C8.20101 3.5 3.5 8.20101 3.5 14C3.5 19.799 8.20101 24.5 14 24.5Z" fill="#FFD700"/>
</svg>
