<svg width="14" height="16" viewBox="0 0 14 16" fill="none" xmlns="http://www.w3.org/2000/svg">
<path fill-rule="evenodd" clip-rule="evenodd" d="M0.834597 5.28233C0.583008 5.82934 0.583008 6.45164 0.583008 7.69625V11.5833C0.583008 13.3118 0.583008 14.176 1.11998 14.713C1.59766 15.1907 2.33433 15.2434 3.70801 15.2492V10.6667C3.70801 9.60812 4.56613 8.75 5.62467 8.75H8.37467C9.43322 8.75 10.2913 9.60812 10.2913 10.6667V15.2492C11.665 15.2434 12.4017 15.1907 12.8794 14.713C13.4163 14.176 13.4163 13.3118 13.4163 11.5833V7.69625C13.4163 6.45164 13.4163 5.82934 13.1647 5.28233C12.9132 4.73531 12.4407 4.33032 11.4957 3.52034L10.579 2.73463C8.87099 1.27059 8.01696 0.538574 6.99967 0.538574C5.98238 0.538574 5.12836 1.27059 3.42032 2.73463L2.50366 3.52034C1.55868 4.33032 1.08619 4.73531 0.834597 5.28233ZM8.29134 15.2499V10.75H5.70801V15.2499H8.29134Z" fill="#ADB5BD"/>
</svg>
