<svg width="20" height="21" viewBox="0 0 20 21" fill="none" xmlns="http://www.w3.org/2000/svg">
<path fill-rule="evenodd" clip-rule="evenodd" d="M10 18C14.1421 18 17.5 14.6421 17.5 10.5C17.5 6.35786 14.1421 3 10 3C5.85786 3 2.5 6.35786 2.5 10.5C2.5 14.6421 5.85786 18 10 18ZM10.5 5.91667C10.5 5.64052 10.2761 5.41667 10 5.41667C9.72386 5.41667 9.5 5.64052 9.5 5.91667V10.25C9.5 10.6642 9.83579 11 10.25 11H12.9167C13.1928 11 13.4167 10.7761 13.4167 10.5C13.4167 10.2239 13.1928 10 12.9167 10H10.5V5.91667Z" fill="#343A40"/>
</svg>
